<svg width="17" height="17" viewBox="0 0 17 17" fill="none" xmlns="http://www.w3.org/2000/svg">
<path opacity="0.822653" d="M13.735 8.16573C13.735 9.48002 13.2127 10.7405 12.2829 11.6698C11.3531 12.5992 10.092 13.1213 8.77709 13.1213C7.46217 13.1213 6.20109 12.5992 5.2713 11.6698C4.34151 10.7405 3.81915 9.48002 3.81915 8.16573C3.81915 6.85144 4.34151 5.59099 5.2713 4.66165C6.20109 3.73231 7.46217 3.21021 8.77709 3.21021C10.092 3.21021 11.3531 3.73231 12.2829 4.66165C13.2127 5.59099 13.735 6.85144 13.735 8.16573Z" fill="url(#paint0_linear_112_868)"/>
<g opacity="0.244411" filter="url(#filter0_f_112_868)">
<path d="M4.6156 8.16582C4.6156 9.26898 5.05404 10.327 5.83448 11.107C6.61491 11.8871 7.6734 12.3253 8.7771 12.3253C9.8808 12.3253 10.9393 11.8871 11.7197 11.107C12.5002 10.327 12.9386 9.26898 12.9386 8.16582C12.9386 7.61959 12.831 7.07871 12.6218 6.57406C12.4127 6.06941 12.1062 5.61087 11.7197 5.22463C11.3333 4.83838 10.8745 4.532 10.3696 4.32297C9.86474 4.11393 9.3236 4.00635 8.7771 4.00635C7.6734 4.00635 6.61491 4.44457 5.83448 5.22463C5.05404 6.00468 4.6156 7.06266 4.6156 8.16582Z" fill="url(#paint1_radial_112_868)"/>
</g>
<g opacity="0.977645" filter="url(#filter1_f_112_868)">
<path d="M13.735 8.16573C13.735 9.48002 13.2127 10.7405 12.2829 11.6698C11.3531 12.5992 10.092 13.1213 8.77709 13.1213C7.46217 13.1213 6.20109 12.5992 5.2713 11.6698C4.34151 10.7405 3.81915 9.48002 3.81915 8.16573C3.81915 6.85144 4.34151 5.59099 5.2713 4.66165C6.20109 3.73231 7.46217 3.21021 8.77709 3.21021C10.092 3.21021 11.3531 3.73231 12.2829 4.66165C13.2127 5.59099 13.735 6.85144 13.735 8.16573Z" fill="url(#paint2_linear_112_868)"/>
</g>
<g filter="url(#filter2_f_112_868)">
<path d="M4.05737 8.16581C4.05737 7.54631 4.17945 6.93287 4.41664 6.36053C4.65383 5.78818 5.00149 5.26813 5.43976 4.83007C5.87803 4.39202 6.39833 4.04453 6.97095 3.80746C7.54358 3.57038 8.15732 3.44836 8.77712 3.44836C9.39693 3.44836 10.0107 3.57038 10.5833 3.80746C11.1559 4.04453 11.6762 4.39202 12.1145 4.83007C12.5528 5.26813 12.9004 5.78817 13.1376 6.36052C13.3748 6.93287 13.4969 7.54631 13.4969 8.16581C13.4969 8.78532 13.3748 9.39875 13.1376 9.9711C12.9004 10.5434 12.5528 11.0635 12.1145 11.5016C11.6762 11.9396 11.1559 12.2871 10.5833 12.5242C10.0107 12.7612 9.39693 12.8833 8.77712 12.8833C8.15732 12.8833 7.54358 12.7612 6.97095 12.5242C6.39833 12.2871 5.87803 11.9396 5.43976 11.5015C5.00149 11.0635 4.65383 10.5434 4.41664 9.9711C4.17945 9.39875 4.05737 8.78532 4.05737 8.16581Z" fill="url(#paint3_linear_112_868)"/>
</g>
<g opacity="0.327869" filter="url(#filter3_f_112_868)">
<path d="M4.34564 8.16588C4.34564 8.74754 4.46027 9.32352 4.68297 9.8609C4.90567 10.3983 5.23209 10.8866 5.64359 11.2979C6.05509 11.7092 6.54361 12.0354 7.08126 12.258C7.61891 12.4806 8.19516 12.5952 8.77711 12.5952C9.35906 12.5952 9.93531 12.4806 10.473 12.258C11.0106 12.0354 11.4991 11.7092 11.9106 11.2979C12.3221 10.8866 12.6486 10.3983 12.8713 9.8609C13.094 9.32352 13.2086 8.74754 13.2086 8.16588C13.2086 7.58421 13.094 7.00824 12.8713 6.47086C12.6485 5.93347 12.3221 5.44519 11.9106 5.03389C11.4991 4.62259 11.0106 4.29633 10.473 4.07373C9.93531 3.85114 9.35906 3.73657 8.77711 3.73657C8.19516 3.73657 7.61891 3.85115 7.08126 4.07374C6.54361 4.29633 6.05509 4.62259 5.64359 5.03389C5.23209 5.44519 4.90567 5.93347 4.68297 6.47086C4.46026 7.00824 4.34564 7.58421 4.34564 8.16588Z" fill="url(#paint4_linear_112_868)"/>
</g>
<g opacity="0.877794" filter="url(#filter4_f_112_868)">
<path d="M4.78156 8.16574C4.78156 7.10657 5.20252 6.09077 5.95183 5.34182C6.70115 4.59288 7.71744 4.17212 8.77713 4.17212C9.30183 4.17212 9.8214 4.27542 10.3062 4.47612C10.7909 4.67682 11.2314 4.97098 11.6024 5.34182C11.9734 5.71267 12.2678 6.15292 12.4686 6.63745C12.6694 7.12198 12.7727 7.64129 12.7727 8.16574C12.7727 8.69019 12.6694 9.2095 12.4686 9.69403C12.2678 10.1786 11.9734 10.6188 11.6024 10.9897C11.2314 11.3605 10.7909 11.6547 10.3062 11.8554C9.8214 12.0561 9.30183 12.1594 8.77713 12.1594C7.71744 12.1594 6.70115 11.7386 5.95183 10.9897C5.20252 10.2407 4.78156 9.22491 4.78156 8.16574Z" fill="url(#paint5_radial_112_868)"/>
</g>
<g opacity="0.706408" filter="url(#filter5_f_112_868)">
<path d="M5.20905 8.16586C5.20905 9.11171 5.58497 10.0188 6.25411 10.6876C6.92325 11.3564 7.8308 11.7322 8.77711 11.7322C9.24567 11.7322 9.70965 11.6399 10.1425 11.4607C10.5754 11.2815 10.9688 11.0188 11.3001 10.6876C11.6314 10.3565 11.8943 9.96332 12.0736 9.53063C12.2529 9.09794 12.3452 8.63419 12.3452 8.16586C12.3452 7.69752 12.2529 7.23377 12.0736 6.80109C11.8943 6.3684 11.6314 5.97525 11.3001 5.64408C10.9688 5.31292 10.5754 5.05023 10.1425 4.871C9.70965 4.69178 9.24567 4.59953 8.77711 4.59953C7.8308 4.59953 6.92325 4.97527 6.25411 5.64408C5.58497 6.3129 5.20905 7.22001 5.20905 8.16586Z" fill="url(#paint6_radial_112_868)"/>
</g>
<g filter="url(#filter6_f_112_868)">
<path d="M2.81689 8.1658C2.8169 9.74578 3.44485 11.261 4.5626 12.3783C5.68036 13.4955 7.19636 14.1231 8.77711 14.1231C10.3579 14.1231 11.8739 13.4955 12.9916 12.3783C14.1094 11.261 14.7373 9.74578 14.7373 8.1658C14.7373 7.38348 14.5832 6.60881 14.2836 5.88604C13.9841 5.16326 13.5451 4.50654 12.9916 3.95335C12.4382 3.40016 11.7811 2.96135 11.058 2.66197C10.3349 2.36259 9.55982 2.2085 8.77711 2.2085C7.19636 2.2085 5.68036 2.83614 4.5626 3.95335C3.44484 5.07056 2.81689 6.58583 2.81689 8.1658Z" fill="url(#paint7_radial_112_868)"/>
</g>
<g filter="url(#filter7_f_112_868)">
<path d="M5.81091 8.26576C5.81091 9.05206 6.12342 9.80615 6.67969 10.3621C7.23596 10.9181 7.99042 11.2305 8.7771 11.2305C9.56378 11.2305 10.3182 10.9181 10.8745 10.3621C11.4308 9.80615 11.7433 9.05206 11.7433 8.26576C11.7433 7.87643 11.6666 7.4909 11.5175 7.13121C11.3684 6.77151 11.1499 6.44468 10.8745 6.16938C10.5991 5.89407 10.2721 5.67569 9.91221 5.5267C9.55234 5.37771 9.16662 5.30103 8.7771 5.30103C7.99042 5.30103 7.23596 5.61338 6.67969 6.16938C6.12342 6.72537 5.81091 7.47947 5.81091 8.26576Z" fill="url(#paint8_radial_112_868)"/>
</g>
<path d="M5.72748 7.15624C5.72748 8.17505 6.1324 9.15213 6.85316 9.87254C7.57391 10.5929 8.55147 10.9977 9.57078 10.9977C10.5901 10.9977 11.5676 10.5929 12.2884 9.87254C13.0092 9.15213 13.4141 8.17505 13.4141 7.15624C13.4141 6.65178 13.3147 6.15226 13.1215 5.68619C12.9284 5.22013 12.6453 4.79666 12.2884 4.43995C11.9315 4.08324 11.5078 3.80028 11.0415 3.60723C10.5753 3.41418 10.0755 3.31482 9.57078 3.31482C8.55147 3.31482 7.57391 3.71954 6.85316 4.43995C6.1324 5.16035 5.72748 6.13743 5.72748 7.15624Z" fill="url(#paint9_radial_112_868)"/>
<defs>
<filter id="filter0_f_112_868" x="0.806339" y="0.197086" width="15.9415" height="15.9375" filterUnits="userSpaceOnUse" color-interpolation-filters="sRGB">
<feFlood flood-opacity="0" result="BackgroundImageFix"/>
<feBlend mode="normal" in="SourceGraphic" in2="BackgroundImageFix" result="shape"/>
<feGaussianBlur stdDeviation="1.90463" result="effect1_foregroundBlur_112_868"/>
</filter>
<filter id="filter1_f_112_868" x="3.47301" y="2.86407" width="10.6082" height="10.6033" filterUnits="userSpaceOnUse" color-interpolation-filters="sRGB">
<feFlood flood-opacity="0" result="BackgroundImageFix"/>
<feBlend mode="normal" in="SourceGraphic" in2="BackgroundImageFix" result="shape"/>
<feGaussianBlur stdDeviation="0.173069" result="effect1_foregroundBlur_112_868"/>
</filter>
<filter id="filter2_f_112_868" x="3.97938" y="3.37037" width="9.59549" height="9.59092" filterUnits="userSpaceOnUse" color-interpolation-filters="sRGB">
<feFlood flood-opacity="0" result="BackgroundImageFix"/>
<feBlend mode="normal" in="SourceGraphic" in2="BackgroundImageFix" result="shape"/>
<feGaussianBlur stdDeviation="0.0389967" result="effect1_foregroundBlur_112_868"/>
</filter>
<filter id="filter3_f_112_868" x="4.09734" y="3.48827" width="9.35955" height="9.35525" filterUnits="userSpaceOnUse" color-interpolation-filters="sRGB">
<feFlood flood-opacity="0" result="BackgroundImageFix"/>
<feBlend mode="normal" in="SourceGraphic" in2="BackgroundImageFix" result="shape"/>
<feGaussianBlur stdDeviation="0.124153" result="effect1_foregroundBlur_112_868"/>
</filter>
<filter id="filter4_f_112_868" x="4.72849" y="4.11906" width="8.09728" height="8.09343" filterUnits="userSpaceOnUse" color-interpolation-filters="sRGB">
<feFlood flood-opacity="0" result="BackgroundImageFix"/>
<feBlend mode="normal" in="SourceGraphic" in2="BackgroundImageFix" result="shape"/>
<feGaussianBlur stdDeviation="0.0265317" result="effect1_foregroundBlur_112_868"/>
</filter>
<filter id="filter5_f_112_868" x="4.92452" y="4.31496" width="7.70518" height="7.70174" filterUnits="userSpaceOnUse" color-interpolation-filters="sRGB">
<feFlood flood-opacity="0" result="BackgroundImageFix"/>
<feBlend mode="normal" in="SourceGraphic" in2="BackgroundImageFix" result="shape"/>
<feGaussianBlur stdDeviation="0.142263" result="effect1_foregroundBlur_112_868"/>
</filter>
<filter id="filter6_f_112_868" x="1.26675" y="0.658353" width="15.0207" height="15.0148" filterUnits="userSpaceOnUse" color-interpolation-filters="sRGB">
<feFlood flood-opacity="0" result="BackgroundImageFix"/>
<feBlend mode="normal" in="SourceGraphic" in2="BackgroundImageFix" result="shape"/>
<feGaussianBlur stdDeviation="0.775071" result="effect1_foregroundBlur_112_868"/>
</filter>
<filter id="filter7_f_112_868" x="5.03946" y="4.52957" width="7.47527" height="7.47234" filterUnits="userSpaceOnUse" color-interpolation-filters="sRGB">
<feFlood flood-opacity="0" result="BackgroundImageFix"/>
<feBlend mode="normal" in="SourceGraphic" in2="BackgroundImageFix" result="shape"/>
<feGaussianBlur stdDeviation="0.385725" result="effect1_foregroundBlur_112_868"/>
</filter>
<linearGradient id="paint0_linear_112_868" x1="8.7771" y1="13.1213" x2="8.7771" y2="3.2102" gradientUnits="userSpaceOnUse">
<stop/>
<stop offset="0.507607" stop-color="#323232"/>
</linearGradient>
<radialGradient id="paint1_radial_112_868" cx="0" cy="0" r="1" gradientUnits="userSpaceOnUse" gradientTransform="translate(8.7771 8.16582) scale(4.43475 4.43272)">
<stop stop-color="#FF0000"/>
<stop offset="1" stop-color="#AC4C4C" stop-opacity="0.408056"/>
</radialGradient>
<linearGradient id="paint2_linear_112_868" x1="8.7771" y1="13.1213" x2="8.7771" y2="3.2102" gradientUnits="userSpaceOnUse">
<stop/>
<stop offset="0.507607" stop-color="#323232"/>
</linearGradient>
<linearGradient id="paint3_linear_112_868" x1="8.77713" y1="3.44836" x2="8.77713" y2="12.8833" gradientUnits="userSpaceOnUse">
<stop offset="0.279391"/>
<stop offset="1" stop-color="#323232"/>
</linearGradient>
<linearGradient id="paint4_linear_112_868" x1="8.77711" y1="12.5952" x2="8.77711" y2="3.73658" gradientUnits="userSpaceOnUse">
<stop offset="0.279391"/>
<stop offset="1" stop-color="#323232"/>
</linearGradient>
<radialGradient id="paint5_radial_112_868" cx="0" cy="0" r="1" gradientUnits="userSpaceOnUse" gradientTransform="translate(8.71879 4.12257) scale(9.87929 9.87447)">
<stop stop-color="#111111"/>
<stop offset="1" stop-color="#484848"/>
</radialGradient>
<radialGradient id="paint6_radial_112_868" cx="0" cy="0" r="1" gradientUnits="userSpaceOnUse" gradientTransform="translate(8.72501 11.7764) scale(8.82224 8.81794)">
<stop stop-color="#111111"/>
<stop offset="1" stop-color="#484848"/>
</radialGradient>
<radialGradient id="paint7_radial_112_868" cx="0" cy="0" r="1" gradientUnits="userSpaceOnUse" gradientTransform="translate(8.77711 8.16581) scale(6.35157 6.34866)">
<stop stop-color="#E1DD78"/>
<stop offset="1" stop-color="#0D0D0D" stop-opacity="0"/>
</radialGradient>
<radialGradient id="paint8_radial_112_868" cx="0" cy="0" r="1" gradientUnits="userSpaceOnUse" gradientTransform="translate(8.7771 8.26576) scale(3.16095 3.1595)">
<stop stop-color="white" stop-opacity="0.169877"/>
<stop offset="1" stop-color="white" stop-opacity="0"/>
</radialGradient>
<radialGradient id="paint9_radial_112_868" cx="0" cy="0" r="1" gradientUnits="userSpaceOnUse" gradientTransform="translate(9.57078 7.15624) scale(1.95469 1.95379)">
<stop stop-color="white" stop-opacity="0.169877"/>
<stop offset="1" stop-color="white" stop-opacity="0"/>
</radialGradient>
</defs>
</svg>
