<svg width="17" height="17" viewBox="0 0 17 17" fill="none" xmlns="http://www.w3.org/2000/svg">
<path opacity="0.822653" d="M13.6771 8.31368C13.6771 9.62797 13.1547 10.8884 12.2249 11.8178C11.2951 12.7471 10.034 13.2692 8.71911 13.2692C7.40418 13.2692 6.14311 12.7471 5.21332 11.8178C4.28352 10.8884 3.76117 9.62797 3.76117 8.31368C3.76117 6.99939 4.28352 5.73894 5.21332 4.8096C6.14311 3.88026 7.40418 3.35816 8.71911 3.35815C10.034 3.35816 11.2951 3.88026 12.2249 4.8096C13.1547 5.73894 13.6771 6.99939 13.6771 8.31368Z" fill="url(#paint0_linear_112_868)"/>
<g opacity="0.244411" filter="url(#filter0_f_112_868)">
<path d="M4.55762 8.31364C4.55762 9.4168 4.99606 10.4748 5.77649 11.2548C6.55693 12.0349 7.61542 12.4731 8.71912 12.4731C9.82282 12.4731 10.8813 12.0349 11.6617 11.2548C12.4422 10.4748 12.8806 9.41681 12.8806 8.31364C12.8806 7.76742 12.773 7.22653 12.5638 6.72188C12.3547 6.21723 12.0482 5.7587 11.6617 5.37245C11.2753 4.98621 10.8166 4.67983 10.3117 4.47079C9.80676 4.26176 9.26562 4.15417 8.71912 4.15417C7.61542 4.15417 6.55693 4.5924 5.77649 5.37245C4.99606 6.15251 4.55762 7.21048 4.55762 8.31364Z" fill="url(#paint1_radial_112_868)"/>
</g>
<g opacity="0.977645" filter="url(#filter1_f_112_868)">
<path d="M13.6771 8.31368C13.6771 9.62797 13.1547 10.8884 12.2249 11.8178C11.2951 12.7471 10.034 13.2692 8.71911 13.2692C7.40418 13.2692 6.14311 12.7471 5.21332 11.8178C4.28352 10.8884 3.76117 9.62797 3.76117 8.31368C3.76117 6.99939 4.28352 5.73894 5.21332 4.8096C6.14311 3.88026 7.40418 3.35816 8.71911 3.35815C10.034 3.35816 11.2951 3.88026 12.2249 4.8096C13.1547 5.73894 13.6771 6.99939 13.6771 8.31368Z" fill="url(#paint2_linear_112_868)"/>
</g>
<g filter="url(#filter2_f_112_868)">
<path d="M3.99939 8.31364C3.99939 7.69413 4.12147 7.0807 4.35866 6.50835C4.59585 5.93601 4.9435 5.41596 5.38177 4.9779C5.82004 4.53985 6.34034 4.19236 6.91297 3.95529C7.4856 3.71821 8.09933 3.59619 8.71914 3.59619C9.33895 3.59619 9.95268 3.71821 10.5253 3.95529C11.0979 4.19236 11.6182 4.53985 12.0565 4.9779C12.4948 5.41596 12.8424 5.936 13.0796 6.50835C13.3168 7.0807 13.4389 7.69413 13.4389 8.31364C13.4389 8.93314 13.3168 9.54658 13.0796 10.1189C12.8424 10.6913 12.4948 11.2113 12.0565 11.6494C11.6182 12.0874 11.0979 12.4349 10.5253 12.672C9.95268 12.9091 9.33895 13.0311 8.71914 13.0311C8.09933 13.0311 7.4856 12.9091 6.91297 12.672C6.34034 12.4349 5.82004 12.0874 5.38177 11.6494C4.9435 11.2113 4.59585 10.6913 4.35866 10.1189C4.12147 9.54658 3.99939 8.93314 3.99939 8.31364Z" fill="url(#paint3_linear_112_868)"/>
</g>
<g opacity="0.327869" filter="url(#filter3_f_112_868)">
<path d="M4.28766 8.31358C4.28766 8.89525 4.40228 9.47122 4.62498 10.0086C4.84769 10.546 5.1741 11.0343 5.5856 11.4456C5.9971 11.8569 6.48563 12.1831 7.02328 12.4057C7.56093 12.6283 8.13718 12.7429 8.71913 12.7429C9.30107 12.7429 9.87733 12.6283 10.415 12.4057C10.9526 12.1831 11.4411 11.8569 11.8526 11.4456C12.2641 11.0343 12.5906 10.546 12.8133 10.0086C13.036 9.47122 13.1506 8.89525 13.1506 8.31358C13.1506 7.73192 13.036 7.15595 12.8133 6.61856C12.5906 6.08117 12.2641 5.59289 11.8526 5.18159C11.4411 4.77029 10.9526 4.44403 10.415 4.22144C9.87732 3.99884 9.30107 3.88428 8.71913 3.88428C8.13718 3.88428 7.56093 3.99885 7.02328 4.22144C6.48563 4.44404 5.9971 4.77029 5.5856 5.18159C5.1741 5.59289 4.84769 6.08117 4.62498 6.61856C4.40228 7.15595 4.28766 7.73192 4.28766 8.31358Z" fill="url(#paint4_linear_112_868)"/>
</g>
<g opacity="0.877794" filter="url(#filter4_f_112_868)">
<path d="M4.72357 8.31369C4.72357 7.25451 5.14453 6.23872 5.89385 5.48977C6.64316 4.74082 7.65945 4.32007 8.71914 4.32007C9.24385 4.32007 9.76342 4.42337 10.2482 4.62407C10.733 4.82477 11.1734 5.11893 11.5444 5.48977C11.9155 5.86062 12.2098 6.30087 12.4106 6.7854C12.6114 7.26992 12.7147 7.78924 12.7147 8.31369C12.7147 8.83814 12.6114 9.35745 12.4106 9.84198C12.2098 10.3265 11.9155 10.7668 11.5444 11.1376C11.1734 11.5085 10.733 11.8026 10.2482 12.0033C9.76342 12.204 9.24385 12.3073 8.71914 12.3073C7.65945 12.3073 6.64316 11.8866 5.89385 11.1376C5.14453 10.3887 4.72357 9.37286 4.72357 8.31369Z" fill="url(#paint5_radial_112_868)"/>
</g>
<g opacity="0.706408" filter="url(#filter5_f_112_868)">
<path d="M5.15106 8.31356C5.15106 9.25941 5.52698 10.1665 6.19612 10.8353C6.86527 11.5041 7.77282 11.8799 8.71912 11.8799C9.18769 11.8799 9.65167 11.7876 10.0846 11.6084C10.5175 11.4292 10.9108 11.1665 11.2421 10.8353C11.5735 10.5042 11.8363 10.111 12.0156 9.67834C12.1949 9.24565 12.2872 8.7819 12.2872 8.31356C12.2872 7.84523 12.1949 7.38148 12.0156 6.94879C11.8363 6.5161 11.5735 6.12295 11.2421 5.79179C10.9108 5.46063 10.5175 5.19793 10.0846 5.01871C9.65167 4.83948 9.18769 4.74724 8.71912 4.74724C7.77282 4.74724 6.86527 5.12297 6.19612 5.79179C5.52698 6.4606 5.15106 7.36772 5.15106 8.31356Z" fill="url(#paint6_radial_112_868)"/>
</g>
<g filter="url(#filter6_f_112_868)">
<path d="M2.75891 8.31363C2.75891 9.8936 3.38686 11.4089 4.50462 12.5261C5.62238 13.6433 7.13838 14.2709 8.71913 14.2709C10.2999 14.2709 11.8159 13.6433 12.9336 12.5261C14.0514 11.4089 14.6793 9.8936 14.6793 8.31363C14.6793 7.5313 14.5252 6.75664 14.2257 6.03387C13.9261 5.31109 13.4871 4.65436 12.9336 4.10118C12.3802 3.54799 11.7231 3.10918 11 2.8098C10.2769 2.51041 9.50183 2.35632 8.71913 2.35632C7.13838 2.35632 5.62238 2.98396 4.50462 4.10118C3.38686 5.21839 2.75891 6.73365 2.75891 8.31363Z" fill="url(#paint7_radial_112_868)"/>
</g>
<g filter="url(#filter7_f_112_868)">
<path d="M5.75293 8.41359C5.75293 9.19989 6.06544 9.95398 6.62171 10.51C7.17797 11.066 7.93243 11.3783 8.71912 11.3783C9.5058 11.3783 10.2603 11.066 10.8165 10.51C11.3728 9.95398 11.6853 9.19989 11.6853 8.41359C11.6853 8.02425 11.6086 7.63873 11.4595 7.27903C11.3104 6.91933 11.092 6.5925 10.8165 6.3172C10.5411 6.0419 10.2141 5.82352 9.85423 5.67453C9.49435 5.52554 9.10864 5.44885 8.71912 5.44885C7.93243 5.44885 7.17797 5.76121 6.62171 6.3172C6.06544 6.8732 5.75293 7.62729 5.75293 8.41359Z" fill="url(#paint8_radial_112_868)"/>
</g>
<path d="M5.66949 7.30407C5.6695 8.32288 6.07441 9.29996 6.79517 10.0204C7.51593 10.7408 8.49349 11.1455 9.5128 11.1455C10.5321 11.1455 11.5097 10.7408 12.2304 10.0204C12.9512 9.29996 13.3561 8.32288 13.3561 7.30407C13.3561 6.79961 13.2567 6.30008 13.0635 5.83402C12.8704 5.36796 12.5873 4.94448 12.2304 4.58777C11.8735 4.23106 11.4499 3.94811 10.9836 3.75506C10.5173 3.56201 10.0175 3.46265 9.5128 3.46265C8.49349 3.46265 7.51593 3.86737 6.79517 4.58777C6.07441 5.30818 5.66949 6.28526 5.66949 7.30407Z" fill="url(#paint9_radial_112_868)"/>
<defs>
<filter id="filter0_f_112_868" x="0.748356" y="0.344913" width="15.9415" height="15.9375" filterUnits="userSpaceOnUse" color-interpolation-filters="sRGB">
<feFlood flood-opacity="0" result="BackgroundImageFix"/>
<feBlend mode="normal" in="SourceGraphic" in2="BackgroundImageFix" result="shape"/>
<feGaussianBlur stdDeviation="1.90463" result="effect1_foregroundBlur_112_868"/>
</filter>
<filter id="filter1_f_112_868" x="3.41503" y="3.01202" width="10.6082" height="10.6033" filterUnits="userSpaceOnUse" color-interpolation-filters="sRGB">
<feFlood flood-opacity="0" result="BackgroundImageFix"/>
<feBlend mode="normal" in="SourceGraphic" in2="BackgroundImageFix" result="shape"/>
<feGaussianBlur stdDeviation="0.173069" result="effect1_foregroundBlur_112_868"/>
</filter>
<filter id="filter2_f_112_868" x="3.9214" y="3.5182" width="9.59549" height="9.59092" filterUnits="userSpaceOnUse" color-interpolation-filters="sRGB">
<feFlood flood-opacity="0" result="BackgroundImageFix"/>
<feBlend mode="normal" in="SourceGraphic" in2="BackgroundImageFix" result="shape"/>
<feGaussianBlur stdDeviation="0.0389967" result="effect1_foregroundBlur_112_868"/>
</filter>
<filter id="filter3_f_112_868" x="4.03935" y="3.63597" width="9.35954" height="9.35525" filterUnits="userSpaceOnUse" color-interpolation-filters="sRGB">
<feFlood flood-opacity="0" result="BackgroundImageFix"/>
<feBlend mode="normal" in="SourceGraphic" in2="BackgroundImageFix" result="shape"/>
<feGaussianBlur stdDeviation="0.124153" result="effect1_foregroundBlur_112_868"/>
</filter>
<filter id="filter4_f_112_868" x="4.67051" y="4.267" width="8.09728" height="8.09343" filterUnits="userSpaceOnUse" color-interpolation-filters="sRGB">
<feFlood flood-opacity="0" result="BackgroundImageFix"/>
<feBlend mode="normal" in="SourceGraphic" in2="BackgroundImageFix" result="shape"/>
<feGaussianBlur stdDeviation="0.0265317" result="effect1_foregroundBlur_112_868"/>
</filter>
<filter id="filter5_f_112_868" x="4.86654" y="4.46267" width="7.70517" height="7.70174" filterUnits="userSpaceOnUse" color-interpolation-filters="sRGB">
<feFlood flood-opacity="0" result="BackgroundImageFix"/>
<feBlend mode="normal" in="SourceGraphic" in2="BackgroundImageFix" result="shape"/>
<feGaussianBlur stdDeviation="0.142263" result="effect1_foregroundBlur_112_868"/>
</filter>
<filter id="filter6_f_112_868" x="1.20877" y="0.80618" width="15.0207" height="15.0148" filterUnits="userSpaceOnUse" color-interpolation-filters="sRGB">
<feFlood flood-opacity="0" result="BackgroundImageFix"/>
<feBlend mode="normal" in="SourceGraphic" in2="BackgroundImageFix" result="shape"/>
<feGaussianBlur stdDeviation="0.775071" result="effect1_foregroundBlur_112_868"/>
</filter>
<filter id="filter7_f_112_868" x="4.98148" y="4.6774" width="7.47527" height="7.47234" filterUnits="userSpaceOnUse" color-interpolation-filters="sRGB">
<feFlood flood-opacity="0" result="BackgroundImageFix"/>
<feBlend mode="normal" in="SourceGraphic" in2="BackgroundImageFix" result="shape"/>
<feGaussianBlur stdDeviation="0.385725" result="effect1_foregroundBlur_112_868"/>
</filter>
<linearGradient id="paint0_linear_112_868" x1="8.71911" y1="13.2692" x2="8.71911" y2="3.35815" gradientUnits="userSpaceOnUse">
<stop/>
<stop offset="0.507607" stop-color="#323232"/>
</linearGradient>
<radialGradient id="paint1_radial_112_868" cx="0" cy="0" r="1" gradientUnits="userSpaceOnUse" gradientTransform="translate(8.71912 8.31365) scale(4.43475 4.43272)">
<stop stop-color="#FF0000"/>
<stop offset="1" stop-color="#AC4C4C" stop-opacity="0.408056"/>
</radialGradient>
<linearGradient id="paint2_linear_112_868" x1="8.71911" y1="13.2692" x2="8.71911" y2="3.35815" gradientUnits="userSpaceOnUse">
<stop/>
<stop offset="0.507607" stop-color="#323232"/>
</linearGradient>
<linearGradient id="paint3_linear_112_868" x1="8.71914" y1="3.59619" x2="8.71914" y2="13.0311" gradientUnits="userSpaceOnUse">
<stop offset="0.279391"/>
<stop offset="1" stop-color="#323232"/>
</linearGradient>
<linearGradient id="paint4_linear_112_868" x1="8.71912" y1="12.7429" x2="8.71912" y2="3.88429" gradientUnits="userSpaceOnUse">
<stop offset="0.279391"/>
<stop offset="1" stop-color="#323232"/>
</linearGradient>
<radialGradient id="paint5_radial_112_868" cx="0" cy="0" r="1" gradientUnits="userSpaceOnUse" gradientTransform="translate(8.66081 4.27052) scale(9.87929 9.87447)">
<stop stop-color="#111111"/>
<stop offset="1" stop-color="#484848"/>
</radialGradient>
<radialGradient id="paint6_radial_112_868" cx="0" cy="0" r="1" gradientUnits="userSpaceOnUse" gradientTransform="translate(8.66703 11.9241) scale(8.82224 8.81794)">
<stop stop-color="#111111"/>
<stop offset="1" stop-color="#484848"/>
</radialGradient>
<radialGradient id="paint7_radial_112_868" cx="0" cy="0" r="1" gradientUnits="userSpaceOnUse" gradientTransform="translate(8.71913 8.31363) scale(6.35157 6.34866)">
<stop stop-color="#34C759"/>
<stop offset="1" stop-color="#0D0D0D" stop-opacity="0"/>
</radialGradient>
<radialGradient id="paint8_radial_112_868" cx="0" cy="0" r="1" gradientUnits="userSpaceOnUse" gradientTransform="translate(8.71912 8.41359) scale(3.16095 3.1595)">
<stop stop-color="white" stop-opacity="0.169877"/>
<stop offset="1" stop-color="white" stop-opacity="0"/>
</radialGradient>
<radialGradient id="paint9_radial_112_868" cx="0" cy="0" r="1" gradientUnits="userSpaceOnUse" gradientTransform="translate(9.5128 7.30407) scale(1.95469 1.95379)">
<stop stop-color="white" stop-opacity="0.169877"/>
<stop offset="1" stop-color="white" stop-opacity="0"/>
</radialGradient>
</defs>
</svg>
