<svg width="15" height="15" viewBox="0 0 15 15" fill="none" xmlns="http://www.w3.org/2000/svg">
<path d="M7.63179 11.2092C9.71917 11.2092 11.4113 9.51705 11.4113 7.42967C11.4113 5.3423 9.71917 3.65015 7.63179 3.65015C5.54442 3.65015 3.85226 5.3423 3.85226 7.42967C3.85226 9.51705 5.54442 11.2092 7.63179 11.2092Z" fill="#979797"/>
<g opacity="0.859911" filter="url(#filter0_f_1_11145)">
<path d="M7.63173 12.2583C10.2985 12.2583 12.4604 10.0965 12.4604 7.42971C12.4604 4.76292 10.2985 2.60107 7.63173 2.60107C4.96495 2.60107 2.8031 4.76292 2.8031 7.42971C2.8031 10.0965 4.96495 12.2583 7.63173 12.2583Z" fill="url(#paint0_radial_1_11145)"/>
</g>
<g opacity="0.925484" filter="url(#filter1_f_1_11145)">
<path d="M7.63178 10.3491C9.24409 10.3491 10.5511 9.04212 10.5511 7.42982C10.5511 5.81751 9.24409 4.5105 7.63178 4.5105C6.01948 4.5105 4.71246 5.81751 4.71246 7.42982C4.71246 9.04212 6.01948 10.3491 7.63178 10.3491Z" fill="url(#paint1_radial_1_11145)"/>
</g>
<g opacity="0.925484" filter="url(#filter2_f_1_11145)">
<path d="M7.63177 9.52526C8.7891 9.52526 9.72729 8.58707 9.72729 7.42975C9.72729 6.27242 8.7891 5.33423 7.63177 5.33423C6.47444 5.33423 5.53625 6.27242 5.53625 7.42975C5.53625 8.58707 6.47444 9.52526 7.63177 9.52526Z" fill="url(#paint2_radial_1_11145)"/>
</g>
<defs>
<filter id="filter0_f_1_11145" x="0.32358" y="0.121553" width="14.6163" height="14.6163" filterUnits="userSpaceOnUse" color-interpolation-filters="sRGB">
<feFlood flood-opacity="0" result="BackgroundImageFix"/>
<feBlend mode="normal" in="SourceGraphic" in2="BackgroundImageFix" result="shape"/>
<feGaussianBlur stdDeviation="1.23976" result="effect1_foregroundBlur_1_11145"/>
</filter>
<filter id="filter1_f_1_11145" x="3.09909" y="2.89712" width="9.06539" height="9.06538" filterUnits="userSpaceOnUse" color-interpolation-filters="sRGB">
<feFlood flood-opacity="0" result="BackgroundImageFix"/>
<feBlend mode="normal" in="SourceGraphic" in2="BackgroundImageFix" result="shape"/>
<feGaussianBlur stdDeviation="0.806689" result="effect1_foregroundBlur_1_11145"/>
</filter>
<filter id="filter2_f_1_11145" x="4.37816" y="4.17613" width="6.50723" height="6.50724" filterUnits="userSpaceOnUse" color-interpolation-filters="sRGB">
<feFlood flood-opacity="0" result="BackgroundImageFix"/>
<feBlend mode="normal" in="SourceGraphic" in2="BackgroundImageFix" result="shape"/>
<feGaussianBlur stdDeviation="0.57905" result="effect1_foregroundBlur_1_11145"/>
</filter>
<radialGradient id="paint0_radial_1_11145" cx="0" cy="0" r="1" gradientUnits="userSpaceOnUse" gradientTransform="translate(7.63174 7.42972) scale(4.82863)">
<stop stop-color="#FF8C36"/>
<stop offset="1" stop-color="#A9A9A9" stop-opacity="0"/>
</radialGradient>
<radialGradient id="paint1_radial_1_11145" cx="0" cy="0" r="1" gradientUnits="userSpaceOnUse" gradientTransform="translate(7.63179 7.42983) scale(2.91932)">
<stop stop-color="white"/>
<stop offset="1" stop-opacity="0"/>
</radialGradient>
<radialGradient id="paint2_radial_1_11145" cx="0" cy="0" r="1" gradientUnits="userSpaceOnUse" gradientTransform="translate(7.63178 7.42975) scale(2.09552)">
<stop stop-color="white"/>
<stop offset="1" stop-color="white" stop-opacity="0"/>
</radialGradient>
</defs>
</svg>
