<svg width="39" height="38" viewBox="0 0 39 38" fill="none" xmlns="http://www.w3.org/2000/svg">
<g opacity="0.22">
<path d="M19.6765 33.7642C28.026 33.7642 34.7946 27.0246 34.7946 18.7109C34.7946 10.3972 28.026 3.65759 19.6765 3.65759C11.327 3.65759 4.55835 10.3972 4.55835 18.7109C4.55835 27.0246 11.327 33.7642 19.6765 33.7642Z" fill="#E3E2DB"/>
<g opacity="0.408624" filter="url(#filter0_f_90_491)">
<path d="M34.77 18.9C34.77 22.9283 33.1621 26.7916 30.3 29.64C27.4379 32.4885 23.5561 34.0887 19.5085 34.0887C15.4609 34.0887 11.5791 32.4885 8.71707 29.64C5.855 26.7916 4.2471 22.9283 4.2471 18.9C4.2471 14.8718 5.855 11.0085 8.71707 8.16008C11.5791 5.31166 15.4609 3.71143 19.5085 3.71143C23.5561 3.71143 27.4379 5.31166 30.3 8.16008C33.1621 11.0085 34.77 14.8718 34.77 18.9Z" fill="url(#paint0_linear_90_491)"/>
</g>
<path d="M34.86 18.6555C34.86 22.6609 33.2612 26.5022 30.4154 29.3345C27.5696 32.1667 23.7098 33.7579 19.6852 33.7579C15.6606 33.7579 11.8009 32.1667 8.95503 29.3345C6.10921 26.5022 4.51044 22.6609 4.51044 18.6555C4.51044 14.6501 6.1092 10.8087 8.95503 7.97649C11.8009 5.14424 15.6606 3.5531 19.6852 3.5531C23.7098 3.5531 27.5696 5.14424 30.4154 7.97649C33.2612 10.8087 34.86 14.6501 34.86 18.6555Z" fill="url(#paint1_linear_90_491)"/>
<g opacity="0.327869" filter="url(#filter1_f_90_491)">
<path d="M3.94141 18.6554C3.94141 20.713 4.34863 22.7506 5.13983 24.6516C5.93103 26.5526 7.09071 28.2799 8.55266 29.7349C10.0146 31.1898 11.7502 32.344 13.6603 33.1314C15.5705 33.9188 17.6177 34.3241 19.6852 34.3241C21.7527 34.3241 23.8 33.9188 25.7101 33.1314C27.6203 32.344 29.3558 31.1898 30.8178 29.7349C32.2797 28.2799 33.4394 26.5526 34.2306 24.6516C35.0218 22.7506 35.429 20.713 35.429 18.6554C35.429 16.5978 35.0218 14.5603 34.2306 12.6593C33.4394 10.7582 32.2797 9.03093 30.8178 7.57596C29.3558 6.12099 27.6203 4.96683 25.7101 4.1794C23.8 3.39198 21.7527 2.98669 19.6852 2.98669C17.6177 2.98669 15.5705 3.392 13.6603 4.17942C11.7502 4.96685 10.0146 6.12099 8.55266 7.57596C7.09071 9.03093 5.93103 10.7582 5.13983 12.6593C4.34863 14.5603 3.94141 16.5978 3.94141 18.6554Z" fill="url(#paint2_linear_90_491)"/>
</g>
<g filter="url(#filter2_f_90_491)">
<path d="M6.54137 18.6554C6.54137 16.9375 6.88134 15.2365 7.54188 13.6494C8.20242 12.0624 9.17059 10.6203 10.3911 9.4056C11.6116 8.19091 13.0606 7.22735 14.6553 6.56996C16.25 5.91257 17.9592 5.57422 19.6852 5.57422C21.4113 5.57422 23.1205 5.91257 24.7152 6.56996C26.3099 7.22735 27.7588 8.19091 28.9793 9.4056C30.1999 10.6203 31.168 12.0623 31.8286 13.6494C32.4891 15.2365 32.8291 16.9375 32.8291 18.6554C32.8291 20.3732 32.4891 22.0742 31.8286 23.6613C31.168 25.2484 30.1999 26.6905 28.9793 27.9052C27.7588 29.1199 26.3099 30.0834 24.7152 30.7408C23.1205 31.3982 21.4113 31.7365 19.6852 31.7365C17.9592 31.7365 16.25 31.3982 14.6553 30.7408C13.0606 30.0834 11.6116 29.1198 10.3911 27.9051C9.17059 26.6904 8.20242 25.2484 7.54188 23.6613C6.88134 22.0742 6.54137 20.3732 6.54137 18.6554Z" fill="url(#paint3_linear_90_491)"/>
</g>
<g opacity="0.706408" filter="url(#filter3_f_90_491)">
<path d="M10.7386 18.6555C10.7386 16.294 11.6812 14.0293 13.359 12.3595C15.0368 10.6897 17.3124 9.75159 19.6852 9.75159C20.8601 9.75159 22.0235 9.9819 23.1089 10.4294C24.1944 10.8768 25.1806 11.5327 26.0114 12.3595C26.8422 13.1863 27.5012 14.1678 27.9508 15.2481C28.4004 16.3284 28.6318 17.4862 28.6318 18.6555C28.6318 19.8247 28.4004 20.9826 27.9508 22.0628C27.5012 23.1431 26.8422 24.1247 26.0114 24.9515C25.1806 25.7783 24.1944 26.4341 23.1089 26.8816C22.0235 27.3291 20.8601 27.5594 19.6852 27.5594C17.3124 27.5594 15.0368 26.6213 13.359 24.9515C11.6812 23.2817 10.7386 21.0169 10.7386 18.6555Z" fill="url(#paint4_radial_90_491)"/>
</g>
</g>
<defs>
<filter id="filter0_f_90_491" x="0.658755" y="0.12308" width="37.6995" height="37.5539" filterUnits="userSpaceOnUse" color-interpolation-filters="sRGB">
<feFlood flood-opacity="0" result="BackgroundImageFix"/>
<feBlend mode="normal" in="SourceGraphic" in2="BackgroundImageFix" result="shape"/>
<feGaussianBlur stdDeviation="1.79417" result="effect1_foregroundBlur_90_491"/>
</filter>
<filter id="filter1_f_90_491" x="3.05924" y="2.10453" width="33.252" height="33.1017" filterUnits="userSpaceOnUse" color-interpolation-filters="sRGB">
<feFlood flood-opacity="0" result="BackgroundImageFix"/>
<feBlend mode="normal" in="SourceGraphic" in2="BackgroundImageFix" result="shape"/>
<feGaussianBlur stdDeviation="0.441082" result="effect1_foregroundBlur_90_491"/>
</filter>
<filter id="filter2_f_90_491" x="6.05799" y="5.09084" width="27.2545" height="27.1291" filterUnits="userSpaceOnUse" color-interpolation-filters="sRGB">
<feFlood flood-opacity="0" result="BackgroundImageFix"/>
<feBlend mode="normal" in="SourceGraphic" in2="BackgroundImageFix" result="shape"/>
<feGaussianBlur stdDeviation="0.241688" result="effect1_foregroundBlur_90_491"/>
</filter>
<filter id="filter3_f_90_491" x="10.0252" y="9.03817" width="19.32" height="19.2346" filterUnits="userSpaceOnUse" color-interpolation-filters="sRGB">
<feFlood flood-opacity="0" result="BackgroundImageFix"/>
<feBlend mode="normal" in="SourceGraphic" in2="BackgroundImageFix" result="shape"/>
<feGaussianBlur stdDeviation="0.35671" result="effect1_foregroundBlur_90_491"/>
</filter>
<linearGradient id="paint0_linear_90_491" x1="19.5085" y1="34.0887" x2="19.5085" y2="3.71142" gradientUnits="userSpaceOnUse">
<stop stop-color="#242424"/>
<stop offset="0.369295" stop-color="#323232"/>
</linearGradient>
<linearGradient id="paint1_linear_90_491" x1="19.6852" y1="33.7579" x2="19.6852" y2="3.55309" gradientUnits="userSpaceOnUse">
<stop/>
<stop offset="0.507607" stop-color="#323232"/>
</linearGradient>
<linearGradient id="paint2_linear_90_491" x1="19.6852" y1="34.3242" x2="19.6852" y2="2.98672" gradientUnits="userSpaceOnUse">
<stop offset="0.279391"/>
<stop offset="1" stop-color="#323232"/>
</linearGradient>
<linearGradient id="paint3_linear_90_491" x1="19.6852" y1="5.57422" x2="19.6852" y2="31.7365" gradientUnits="userSpaceOnUse">
<stop offset="0.279391"/>
<stop offset="1" stop-color="#323232"/>
</linearGradient>
<radialGradient id="paint4_radial_90_491" cx="0" cy="0" r="1" gradientUnits="userSpaceOnUse" gradientTransform="translate(19.5546 9.64111) scale(22.1209 22.0154)">
<stop stop-color="#111111"/>
<stop offset="1" stop-color="#484848"/>
</radialGradient>
</defs>
</svg>
