<svg width="39" height="39" viewBox="0 0 39 39" fill="none" xmlns="http://www.w3.org/2000/svg">
<path d="M19.8768 34.5058C28.2263 34.5058 34.9949 27.7662 34.9949 19.4525C34.9949 11.1388 28.2263 4.39917 19.8768 4.39917C11.5273 4.39917 4.75867 11.1388 4.75867 19.4525C4.75867 27.7662 11.5273 34.5058 19.8768 34.5058Z" fill="#E3E2DB"/>
<g opacity="0.408624" filter="url(#filter0_f_90_431)">
<path d="M34.9703 19.6416C34.9703 23.6699 33.3624 27.5332 30.5003 30.3816C27.6382 33.23 23.7564 34.8302 19.7088 34.8303C15.6613 34.8302 11.7795 33.23 8.91739 30.3816C6.05531 27.5332 4.44742 23.6699 4.44742 19.6416C4.44742 15.6134 6.05531 11.7501 8.91739 8.90166C11.7795 6.05324 15.6613 4.45301 19.7088 4.453C23.7564 4.45301 27.6382 6.05324 30.5003 8.90166C33.3624 11.7501 34.9703 15.6134 34.9703 19.6416Z" fill="url(#paint0_linear_90_431)"/>
</g>
<path d="M35.0603 19.3971C35.0603 23.4025 33.4616 27.2438 30.6157 30.0761C27.7699 32.9083 23.9101 34.4995 19.8855 34.4995C15.8609 34.4995 12.0012 32.9083 9.15535 30.0761C6.30953 27.2438 4.71076 23.4025 4.71075 19.3971C4.71075 15.3917 6.30952 11.5503 9.15534 8.71807C12.0012 5.88582 15.8609 4.29468 19.8855 4.29468C23.9101 4.29468 27.7699 5.88582 30.6157 8.71807C33.4616 11.5503 35.0603 15.3917 35.0603 19.3971Z" fill="url(#paint1_linear_90_431)"/>
<g opacity="0.327869" filter="url(#filter1_f_90_431)">
<path d="M4.14172 19.397C4.14172 21.4546 4.54895 23.4921 5.34015 25.3932C6.13135 27.2942 7.29103 29.0215 8.75298 30.4764C10.2149 31.9314 11.9505 33.0856 13.8606 33.873C15.7708 34.6604 17.818 35.0657 19.8855 35.0657C21.9531 35.0657 24.0003 34.6604 25.9104 33.873C27.8206 33.0856 29.5562 31.9314 31.0181 30.4764C32.4801 29.0215 33.6397 27.2942 34.4309 25.3932C35.2221 23.4921 35.6294 21.4546 35.6294 19.397C35.6294 17.3393 35.2221 15.3018 34.4309 13.4008C33.6397 11.4998 32.4801 9.77251 31.0181 8.31754C29.5562 6.86256 27.8206 5.7084 25.9104 4.92098C24.0003 4.13355 21.9531 3.72827 19.8855 3.72827C17.818 3.72827 15.7708 4.13357 13.8606 4.921C11.9505 5.70843 10.2149 6.86256 8.75298 8.31754C7.29103 9.77251 6.13135 11.4998 5.34015 13.4008C4.54895 15.3018 4.14172 17.3393 4.14172 19.397Z" fill="url(#paint2_linear_90_431)"/>
</g>
<g filter="url(#filter2_f_90_431)">
<path d="M6.74168 19.397C6.74168 17.6791 7.08166 15.9781 7.7422 14.391C8.40274 12.8039 9.37091 11.3619 10.5914 10.1472C11.812 8.93248 13.2609 7.96893 14.8556 7.31154C16.4503 6.65415 18.1595 6.3158 19.8855 6.3158C21.6116 6.3158 23.3208 6.65415 24.9155 7.31154C26.5102 7.96893 27.9591 8.93248 29.1797 10.1472C30.4002 11.3619 31.3684 12.8039 32.0289 14.391C32.6894 15.9781 33.0294 17.6791 33.0294 19.397C33.0294 21.1148 32.6894 22.8158 32.0289 24.4029C31.3684 25.99 30.4002 27.432 29.1797 28.6467C27.9591 29.8614 26.5102 30.825 24.9155 31.4824C23.3208 32.1398 21.6116 32.4781 19.8855 32.4781C18.1595 32.4781 16.4503 32.1398 14.8556 31.4824C13.2609 30.825 11.812 29.8614 10.5914 28.6467C9.37091 27.432 8.40274 25.99 7.7422 24.4029C7.08166 22.8158 6.74168 21.1148 6.74168 19.397Z" fill="url(#paint3_linear_90_431)"/>
</g>
<g opacity="0.706408" filter="url(#filter3_f_90_431)">
<path d="M10.939 19.397C10.939 17.0356 11.8815 14.7709 13.5594 13.1011C15.2372 11.4313 17.5128 10.4932 19.8855 10.4932C21.0604 10.4932 22.2238 10.7235 23.3092 11.1709C24.3947 11.6184 25.3809 12.2743 26.2117 13.1011C27.0425 13.9279 27.7015 14.9094 28.1511 15.9897C28.6007 17.0699 28.8321 18.2278 28.8321 19.397C28.8321 20.5663 28.6007 21.7241 28.1511 22.8044C27.7015 23.8847 27.0425 24.8662 26.2117 25.6931C25.3809 26.5199 24.3947 27.1757 23.3092 27.6232C22.2238 28.0706 21.0604 28.3009 19.8855 28.3009C17.5128 28.3009 15.2372 27.3629 13.5594 25.6931C11.8815 24.0232 10.939 21.7585 10.939 19.397Z" fill="url(#paint4_radial_90_431)"/>
</g>
<defs>
<filter id="filter0_f_90_431" x="0.859073" y="0.864657" width="37.6995" height="37.5539" filterUnits="userSpaceOnUse" color-interpolation-filters="sRGB">
<feFlood flood-opacity="0" result="BackgroundImageFix"/>
<feBlend mode="normal" in="SourceGraphic" in2="BackgroundImageFix" result="shape"/>
<feGaussianBlur stdDeviation="1.79417" result="effect1_foregroundBlur_90_431"/>
</filter>
<filter id="filter1_f_90_431" x="3.25956" y="2.84611" width="33.252" height="33.1017" filterUnits="userSpaceOnUse" color-interpolation-filters="sRGB">
<feFlood flood-opacity="0" result="BackgroundImageFix"/>
<feBlend mode="normal" in="SourceGraphic" in2="BackgroundImageFix" result="shape"/>
<feGaussianBlur stdDeviation="0.441082" result="effect1_foregroundBlur_90_431"/>
</filter>
<filter id="filter2_f_90_431" x="6.25831" y="5.83242" width="27.2545" height="27.1291" filterUnits="userSpaceOnUse" color-interpolation-filters="sRGB">
<feFlood flood-opacity="0" result="BackgroundImageFix"/>
<feBlend mode="normal" in="SourceGraphic" in2="BackgroundImageFix" result="shape"/>
<feGaussianBlur stdDeviation="0.241688" result="effect1_foregroundBlur_90_431"/>
</filter>
<filter id="filter3_f_90_431" x="10.2255" y="9.77974" width="19.32" height="19.2346" filterUnits="userSpaceOnUse" color-interpolation-filters="sRGB">
<feFlood flood-opacity="0" result="BackgroundImageFix"/>
<feBlend mode="normal" in="SourceGraphic" in2="BackgroundImageFix" result="shape"/>
<feGaussianBlur stdDeviation="0.35671" result="effect1_foregroundBlur_90_431"/>
</filter>
<linearGradient id="paint0_linear_90_431" x1="19.7088" y1="34.8303" x2="19.7088" y2="4.453" gradientUnits="userSpaceOnUse">
<stop stop-color="#242424"/>
<stop offset="0.369295" stop-color="#323232"/>
</linearGradient>
<linearGradient id="paint1_linear_90_431" x1="19.8855" y1="34.4995" x2="19.8855" y2="4.29467" gradientUnits="userSpaceOnUse">
<stop/>
<stop offset="0.507607" stop-color="#323232"/>
</linearGradient>
<linearGradient id="paint2_linear_90_431" x1="19.8855" y1="35.0657" x2="19.8855" y2="3.7283" gradientUnits="userSpaceOnUse">
<stop offset="0.279391"/>
<stop offset="1" stop-color="#323232"/>
</linearGradient>
<linearGradient id="paint3_linear_90_431" x1="19.8856" y1="6.3158" x2="19.8856" y2="32.4781" gradientUnits="userSpaceOnUse">
<stop offset="0.279391"/>
<stop offset="1" stop-color="#323232"/>
</linearGradient>
<radialGradient id="paint4_radial_90_431" cx="0" cy="0" r="1" gradientUnits="userSpaceOnUse" gradientTransform="translate(19.7549 10.3827) scale(22.1209 22.0154)">
<stop stop-color="#111111"/>
<stop offset="1" stop-color="#484848"/>
</radialGradient>
</defs>
</svg>
