<svg width="11" height="12" viewBox="0 0 11 12" fill="none" xmlns="http://www.w3.org/2000/svg">
<path opacity="0.822653" d="M10.304 5.92366C10.304 7.23795 9.78161 8.49841 8.85181 9.42775C7.92202 10.3571 6.66095 10.8792 5.34602 10.8792C4.03109 10.8792 2.77002 10.3571 1.84022 9.42775C0.91043 8.49841 0.388077 7.23795 0.388077 5.92366C0.388077 4.60938 0.91043 3.34892 1.84022 2.41958C2.77002 1.49024 4.03109 0.96814 5.34602 0.96814C6.66095 0.968141 7.92202 1.49024 8.85181 2.41958C9.78161 3.34892 10.304 4.60938 10.304 5.92366Z" fill="url(#paint0_linear_21_309)"/>
<g opacity="0.977645" filter="url(#filter0_f_21_309)">
<path d="M10.304 5.92366C10.304 7.23795 9.78161 8.49841 8.85181 9.42775C7.92202 10.3571 6.66095 10.8792 5.34602 10.8792C4.03109 10.8792 2.77002 10.3571 1.84022 9.42775C0.91043 8.49841 0.388077 7.23795 0.388077 5.92366C0.388077 4.60938 0.91043 3.34892 1.84022 2.41958C2.77002 1.49024 4.03109 0.96814 5.34602 0.96814C6.66095 0.968141 7.92202 1.49024 8.85181 2.41958C9.78161 3.34892 10.304 4.60938 10.304 5.92366Z" fill="url(#paint1_linear_21_309)"/>
</g>
<g filter="url(#filter1_f_21_309)">
<path d="M0.626251 5.92362C0.626251 5.30412 0.748331 4.69069 0.985521 4.11834C1.22271 3.54599 1.57036 3.02594 2.00863 2.58789C2.4469 2.14983 2.9672 1.80234 3.53983 1.56527C4.11246 1.3282 4.7262 1.20618 5.346 1.20618C5.96581 1.20618 6.57955 1.3282 7.15217 1.56527C7.7248 1.80234 8.2451 2.14983 8.68337 2.58789C9.12164 3.02594 9.46929 3.54599 9.70648 4.11833C9.94367 4.69068 10.0658 5.30412 10.0658 5.92362C10.0658 6.54313 9.94367 7.15657 9.70648 7.72891C9.46929 8.30126 9.12164 8.82131 8.68337 9.25937C8.2451 9.69742 7.7248 10.0449 7.15217 10.282C6.57955 10.5191 5.96581 10.6411 5.346 10.6411C4.7262 10.6411 4.11246 10.5191 3.53983 10.282C2.9672 10.0449 2.4469 9.69742 2.00863 9.25936C1.57036 8.82131 1.22271 8.30126 0.985521 7.72891C0.748331 7.15657 0.626251 6.54313 0.626251 5.92362Z" fill="url(#paint2_linear_21_309)"/>
</g>
<g opacity="0.327869" filter="url(#filter2_f_21_309)">
<path d="M0.914551 5.92369C0.91455 6.50535 1.02917 7.08133 1.25188 7.61872C1.47458 8.15611 1.801 8.64439 2.2125 9.05569C2.624 9.46698 3.11252 9.79324 3.65017 10.0158C4.18782 10.2384 4.76407 10.353 5.34602 10.353C5.92797 10.353 6.50422 10.2384 7.04187 10.0158C7.57952 9.79324 8.06804 9.46698 8.47954 9.05569C8.89104 8.64439 9.21746 8.15611 9.44016 7.61872C9.66286 7.08133 9.77749 6.50535 9.77749 5.92369C9.77749 5.34203 9.66286 4.76606 9.44016 4.22867C9.21746 3.69128 8.89104 3.203 8.47954 2.7917C8.06804 2.3804 7.57952 2.05414 7.04187 1.83154C6.50422 1.60895 5.92797 1.49438 5.34602 1.49438C4.76407 1.49438 4.18782 1.60896 3.65017 1.83155C3.11252 2.05414 2.624 2.3804 2.2125 2.7917C1.801 3.203 1.47458 3.69128 1.25188 4.22867C1.02917 4.76606 0.914551 5.34203 0.914551 5.92369Z" fill="url(#paint3_linear_21_309)"/>
</g>
<g opacity="0.877794" filter="url(#filter3_f_21_309)">
<path d="M1.35043 5.92367C1.35043 4.8645 1.77139 3.84871 2.52071 3.09976C3.27002 2.35081 4.28631 1.93005 5.34601 1.93005C5.87071 1.93005 6.39028 2.03335 6.87505 2.23405C7.35981 2.43475 7.80028 2.72892 8.1713 3.09976C8.54233 3.4706 8.83664 3.91085 9.03744 4.39538C9.23823 4.87991 9.34158 5.39922 9.34158 5.92367C9.34158 6.44812 9.23823 6.96744 9.03744 7.45197C8.83664 7.9365 8.54233 8.37675 8.1713 8.7476C7.80028 9.11844 7.35981 9.4126 6.87505 9.6133C6.39028 9.814 5.87071 9.9173 5.34601 9.9173C4.28631 9.9173 3.27002 9.49655 2.52071 8.7476C1.77139 7.99865 1.35043 6.98285 1.35043 5.92367Z" fill="url(#paint4_radial_21_309)"/>
</g>
<g opacity="0.706408" filter="url(#filter4_f_21_309)">
<path d="M1.77795 5.92367C1.77795 6.86952 2.15387 7.77662 2.82302 8.44544C3.49216 9.11425 4.39971 9.48999 5.34602 9.48999C5.81458 9.48999 6.27856 9.39774 6.71146 9.21852C7.14435 9.03929 7.53769 8.7766 7.86902 8.44544C8.20034 8.11427 8.46317 7.72113 8.64248 7.28844C8.82179 6.85576 8.91408 6.39201 8.91408 5.92367C8.91408 5.45533 8.82179 4.99158 8.64248 4.5589C8.46317 4.12621 8.20034 3.73306 7.86902 3.4019C7.53769 3.07073 7.14435 2.80804 6.71146 2.62882C6.27856 2.44959 5.81458 2.35734 5.34602 2.35734C4.39971 2.35734 3.49216 2.73308 2.82302 3.4019C2.15387 4.07071 1.77795 4.97782 1.77795 5.92367Z" fill="url(#paint5_radial_21_309)"/>
</g>
<defs>
<filter id="filter0_f_21_309" x="0.0419379" y="0.622001" width="10.6082" height="10.6033" filterUnits="userSpaceOnUse" color-interpolation-filters="sRGB">
<feFlood flood-opacity="0" result="BackgroundImageFix"/>
<feBlend mode="normal" in="SourceGraphic" in2="BackgroundImageFix" result="shape"/>
<feGaussianBlur stdDeviation="0.173069" result="effect1_foregroundBlur_21_309"/>
</filter>
<filter id="filter1_f_21_309" x="0.548258" y="1.12818" width="9.59549" height="9.59086" filterUnits="userSpaceOnUse" color-interpolation-filters="sRGB">
<feFlood flood-opacity="0" result="BackgroundImageFix"/>
<feBlend mode="normal" in="SourceGraphic" in2="BackgroundImageFix" result="shape"/>
<feGaussianBlur stdDeviation="0.0389967" result="effect1_foregroundBlur_21_309"/>
</filter>
<filter id="filter2_f_21_309" x="0.666245" y="1.24608" width="9.35954" height="9.35525" filterUnits="userSpaceOnUse" color-interpolation-filters="sRGB">
<feFlood flood-opacity="0" result="BackgroundImageFix"/>
<feBlend mode="normal" in="SourceGraphic" in2="BackgroundImageFix" result="shape"/>
<feGaussianBlur stdDeviation="0.124153" result="effect1_foregroundBlur_21_309"/>
</filter>
<filter id="filter3_f_21_309" x="1.29737" y="1.87699" width="8.09728" height="8.09337" filterUnits="userSpaceOnUse" color-interpolation-filters="sRGB">
<feFlood flood-opacity="0" result="BackgroundImageFix"/>
<feBlend mode="normal" in="SourceGraphic" in2="BackgroundImageFix" result="shape"/>
<feGaussianBlur stdDeviation="0.0265317" result="effect1_foregroundBlur_21_309"/>
</filter>
<filter id="filter4_f_21_309" x="1.49343" y="2.07284" width="7.70517" height="7.70168" filterUnits="userSpaceOnUse" color-interpolation-filters="sRGB">
<feFlood flood-opacity="0" result="BackgroundImageFix"/>
<feBlend mode="normal" in="SourceGraphic" in2="BackgroundImageFix" result="shape"/>
<feGaussianBlur stdDeviation="0.142263" result="effect1_foregroundBlur_21_309"/>
</filter>
<linearGradient id="paint0_linear_21_309" x1="5.34602" y1="10.8792" x2="5.34602" y2="0.968138" gradientUnits="userSpaceOnUse">
<stop/>
<stop offset="0.507607" stop-color="#323232"/>
</linearGradient>
<linearGradient id="paint1_linear_21_309" x1="5.34602" y1="10.8792" x2="5.34602" y2="0.968138" gradientUnits="userSpaceOnUse">
<stop/>
<stop offset="0.507607" stop-color="#323232"/>
</linearGradient>
<linearGradient id="paint2_linear_21_309" x1="5.346" y1="1.20618" x2="5.346" y2="10.6411" gradientUnits="userSpaceOnUse">
<stop offset="0.279391"/>
<stop offset="1" stop-color="#323232"/>
</linearGradient>
<linearGradient id="paint3_linear_21_309" x1="5.34602" y1="10.353" x2="5.34602" y2="1.49439" gradientUnits="userSpaceOnUse">
<stop offset="0.279391"/>
<stop offset="1" stop-color="#323232"/>
</linearGradient>
<radialGradient id="paint4_radial_21_309" cx="0" cy="0" r="1" gradientUnits="userSpaceOnUse" gradientTransform="translate(5.28767 1.8805) scale(9.87929 9.87447)">
<stop stop-color="#111111"/>
<stop offset="1" stop-color="#484848"/>
</radialGradient>
<radialGradient id="paint5_radial_21_309" cx="0" cy="0" r="1" gradientUnits="userSpaceOnUse" gradientTransform="translate(5.29392 9.53424) scale(8.82224 8.81794)">
<stop stop-color="#111111"/>
<stop offset="1" stop-color="#484848"/>
</radialGradient>
</defs>
</svg>
