<svg width="11" height="11" viewBox="0 0 11 11" fill="none" xmlns="http://www.w3.org/2000/svg">
<g opacity="0.22">
<path opacity="0.822653" d="M10.3901 5.29928C10.3901 6.61356 9.86777 7.87402 8.93798 8.80336C8.00818 9.7327 6.74711 10.2548 5.43219 10.2548C4.11726 10.2548 2.85619 9.7327 1.92639 8.80336C0.996596 7.87402 0.474243 6.61356 0.474243 5.29928C0.474243 3.98499 0.996596 2.72453 1.92639 1.79519C2.85619 0.865851 4.11726 0.343751 5.43219 0.34375C6.74711 0.343751 8.00819 0.865851 8.93798 1.79519C9.86777 2.72453 10.3901 3.98499 10.3901 5.29928Z" fill="url(#paint0_linear_88_375)"/>
<g opacity="0.977645" filter="url(#filter0_f_88_375)">
<path d="M10.3901 5.29928C10.3901 6.61356 9.86777 7.87402 8.93798 8.80336C8.00818 9.7327 6.74711 10.2548 5.43219 10.2548C4.11726 10.2548 2.85619 9.7327 1.92639 8.80336C0.996596 7.87402 0.474243 6.61356 0.474243 5.29928C0.474243 3.98499 0.996596 2.72453 1.92639 1.79519C2.85619 0.865851 4.11726 0.343751 5.43219 0.34375C6.74711 0.343751 8.00819 0.865851 8.93798 1.79519C9.86777 2.72453 10.3901 3.98499 10.3901 5.29928Z" fill="url(#paint1_linear_88_375)"/>
</g>
<g filter="url(#filter1_f_88_375)">
<path d="M0.712425 5.29923C0.712425 4.67973 0.834505 4.0663 1.07169 3.49395C1.30888 2.9216 1.65654 2.40155 2.09481 1.9635C2.53308 1.52544 3.05338 1.17795 3.626 0.940881C4.19863 0.703807 4.81237 0.581787 5.43218 0.581787C6.05198 0.581787 6.66572 0.703807 7.23835 0.940881C7.81097 1.17795 8.33128 1.52544 8.76954 1.9635C9.20781 2.40155 9.55547 2.9216 9.79266 3.49394C10.0298 4.06629 10.1519 4.67973 10.1519 5.29923C10.1519 5.91874 10.0298 6.53218 9.79266 7.10452C9.55547 7.67687 9.20781 8.19692 8.76954 8.63498C8.33128 9.07303 7.81097 9.42051 7.23835 9.65759C6.66572 9.89466 6.05198 10.0167 5.43218 10.0167C4.81237 10.0167 4.19863 9.89466 3.626 9.65759C3.05338 9.42051 2.53308 9.07303 2.09481 8.63497C1.65654 8.19692 1.30888 7.67687 1.07169 7.10452C0.834505 6.53218 0.712425 5.91874 0.712425 5.29923Z" fill="url(#paint2_linear_88_375)"/>
</g>
<g opacity="0.327869" filter="url(#filter2_f_88_375)">
<path d="M1.00072 5.2993C1.00072 5.88096 1.11534 6.45694 1.33805 6.99433C1.56075 7.53172 1.88717 8.02 2.29867 8.4313C2.71017 8.84259 3.19869 9.16885 3.73634 9.39145C4.27399 9.61404 4.85024 9.72861 5.43219 9.72861C6.01414 9.72861 6.59039 9.61404 7.12804 9.39145C7.66569 9.16885 8.15421 8.84259 8.56571 8.4313C8.97721 8.02 9.30363 7.53172 9.52633 6.99433C9.74903 6.45694 9.86366 5.88096 9.86366 5.2993C9.86366 4.71764 9.74903 4.14167 9.52633 3.60428C9.30363 3.06689 8.97721 2.57861 8.56571 2.16731C8.15421 1.75601 7.66569 1.42975 7.12804 1.20716C6.59039 0.984562 6.01414 0.869995 5.43219 0.869995C4.85024 0.869995 4.27399 0.984568 3.73634 1.20716C3.19869 1.42975 2.71017 1.75601 2.29867 2.16731C1.88717 2.57861 1.56075 3.06689 1.33805 3.60428C1.11534 4.14167 1.00072 4.71764 1.00072 5.2993Z" fill="url(#paint3_linear_88_375)"/>
</g>
<g opacity="0.877794" filter="url(#filter3_f_88_375)">
<path d="M1.4366 5.29928C1.4366 4.24011 1.85756 3.22432 2.60688 2.47537C3.35619 1.72642 4.37248 1.30566 5.43217 1.30566C5.95688 1.30566 6.47645 1.40897 6.96121 1.60966C7.44598 1.81036 7.88645 2.10453 8.25747 2.47537C8.62849 2.84621 8.92281 3.28646 9.1236 3.77099C9.3244 4.25552 9.42775 4.77483 9.42775 5.29928C9.42775 5.82373 9.3244 6.34305 9.1236 6.82758C8.92281 7.31211 8.62849 7.75236 8.25747 8.12321C7.88645 8.49405 7.44598 8.78822 6.96121 8.98891C6.47645 9.18961 5.95688 9.29291 5.43217 9.29291C4.37248 9.29291 3.35619 8.87216 2.60688 8.12321C1.85756 7.37426 1.4366 6.35846 1.4366 5.29928Z" fill="url(#paint4_radial_88_375)"/>
</g>
<g opacity="0.706408" filter="url(#filter4_f_88_375)">
<path d="M1.86411 5.29928C1.86411 6.24513 2.24003 7.15223 2.90917 7.82105C3.57832 8.48986 4.48587 8.8656 5.43218 8.8656C5.90074 8.8656 6.36472 8.77335 6.79762 8.59413C7.23051 8.4149 7.62385 8.15221 7.95518 7.82105C8.2865 7.48989 8.54933 7.09674 8.72864 6.66405C8.90795 6.23137 9.00024 5.76762 9.00024 5.29928C9.00024 4.83094 8.90795 4.3672 8.72864 3.93451C8.54933 3.50182 8.2865 3.10867 7.95518 2.77751C7.62385 2.44634 7.23051 2.18365 6.79762 2.00443C6.36472 1.8252 5.90074 1.73295 5.43218 1.73295C4.48587 1.73295 3.57832 2.10869 2.90917 2.77751C2.24003 3.44632 1.86411 4.35343 1.86411 5.29928Z" fill="url(#paint5_radial_88_375)"/>
</g>
</g>
<defs>
<filter id="filter0_f_88_375" x="0.128104" y="-0.00238889" width="10.6082" height="10.6033" filterUnits="userSpaceOnUse" color-interpolation-filters="sRGB">
<feFlood flood-opacity="0" result="BackgroundImageFix"/>
<feBlend mode="normal" in="SourceGraphic" in2="BackgroundImageFix" result="shape"/>
<feGaussianBlur stdDeviation="0.173069" result="effect1_foregroundBlur_88_375"/>
</filter>
<filter id="filter1_f_88_375" x="0.634432" y="0.503794" width="9.59549" height="9.59092" filterUnits="userSpaceOnUse" color-interpolation-filters="sRGB">
<feFlood flood-opacity="0" result="BackgroundImageFix"/>
<feBlend mode="normal" in="SourceGraphic" in2="BackgroundImageFix" result="shape"/>
<feGaussianBlur stdDeviation="0.0389967" result="effect1_foregroundBlur_88_375"/>
</filter>
<filter id="filter2_f_88_375" x="0.752415" y="0.621689" width="9.35955" height="9.35525" filterUnits="userSpaceOnUse" color-interpolation-filters="sRGB">
<feFlood flood-opacity="0" result="BackgroundImageFix"/>
<feBlend mode="normal" in="SourceGraphic" in2="BackgroundImageFix" result="shape"/>
<feGaussianBlur stdDeviation="0.124153" result="effect1_foregroundBlur_88_375"/>
</filter>
<filter id="filter3_f_88_375" x="1.38354" y="1.2526" width="8.09727" height="8.09343" filterUnits="userSpaceOnUse" color-interpolation-filters="sRGB">
<feFlood flood-opacity="0" result="BackgroundImageFix"/>
<feBlend mode="normal" in="SourceGraphic" in2="BackgroundImageFix" result="shape"/>
<feGaussianBlur stdDeviation="0.0265317" result="effect1_foregroundBlur_88_375"/>
</filter>
<filter id="filter4_f_88_375" x="1.57959" y="1.44838" width="7.70518" height="7.70174" filterUnits="userSpaceOnUse" color-interpolation-filters="sRGB">
<feFlood flood-opacity="0" result="BackgroundImageFix"/>
<feBlend mode="normal" in="SourceGraphic" in2="BackgroundImageFix" result="shape"/>
<feGaussianBlur stdDeviation="0.142263" result="effect1_foregroundBlur_88_375"/>
</filter>
<linearGradient id="paint0_linear_88_375" x1="5.43219" y1="10.2548" x2="5.43219" y2="0.343749" gradientUnits="userSpaceOnUse">
<stop/>
<stop offset="0.507607" stop-color="#323232"/>
</linearGradient>
<linearGradient id="paint1_linear_88_375" x1="5.43219" y1="10.2548" x2="5.43219" y2="0.343749" gradientUnits="userSpaceOnUse">
<stop/>
<stop offset="0.507607" stop-color="#323232"/>
</linearGradient>
<linearGradient id="paint2_linear_88_375" x1="5.43218" y1="0.581788" x2="5.43218" y2="10.0167" gradientUnits="userSpaceOnUse">
<stop offset="0.279391"/>
<stop offset="1" stop-color="#323232"/>
</linearGradient>
<linearGradient id="paint3_linear_88_375" x1="5.43219" y1="9.72862" x2="5.43219" y2="0.870004" gradientUnits="userSpaceOnUse">
<stop offset="0.279391"/>
<stop offset="1" stop-color="#323232"/>
</linearGradient>
<radialGradient id="paint4_radial_88_375" cx="0" cy="0" r="1" gradientUnits="userSpaceOnUse" gradientTransform="translate(5.37384 1.25611) scale(9.87929 9.87447)">
<stop stop-color="#111111"/>
<stop offset="1" stop-color="#484848"/>
</radialGradient>
<radialGradient id="paint5_radial_88_375" cx="0" cy="0" r="1" gradientUnits="userSpaceOnUse" gradientTransform="translate(5.38008 8.90985) scale(8.82224 8.81794)">
<stop stop-color="#111111"/>
<stop offset="1" stop-color="#484848"/>
</radialGradient>
</defs>
</svg>
