<svg width="17" height="17" viewBox="0 0 17 17" fill="none" xmlns="http://www.w3.org/2000/svg">
<path opacity="0.822653" d="M13.7336 8.89486C13.7336 10.2091 13.2112 11.4696 12.2814 12.3989C11.3517 13.3283 10.0906 13.8504 8.77565 13.8504C7.46072 13.8504 6.19965 13.3283 5.26986 12.3989C4.34006 11.4696 3.81771 10.2091 3.81771 8.89486C3.81771 7.58057 4.34006 6.32011 5.26986 5.39077C6.19965 4.46143 7.46072 3.93933 8.77565 3.93933C10.0906 3.93933 11.3517 4.46143 12.2814 5.39077C13.2112 6.32011 13.7336 7.58057 13.7336 8.89486Z" fill="url(#paint0_linear_1_11151)"/>
<g opacity="0.244411" filter="url(#filter0_f_1_11151)">
<path d="M4.61414 8.89488C4.61414 9.99804 5.05259 11.056 5.83302 11.8361C6.61345 12.6161 7.67195 13.0544 8.77565 13.0544C9.87934 13.0544 10.9378 12.6161 11.7183 11.8361C12.4987 11.056 12.9371 9.99804 12.9371 8.89488C12.9371 8.34865 12.8295 7.80777 12.6204 7.30312C12.4112 6.79847 12.1047 6.33993 11.7183 5.95369C11.3318 5.56745 10.8731 5.26107 10.3682 5.05203C9.86329 4.843 9.32214 4.73541 8.77565 4.73541C7.67195 4.73541 6.61345 5.17364 5.83302 5.95369C5.05259 6.73374 4.61414 7.79172 4.61414 8.89488Z" fill="url(#paint1_radial_1_11151)"/>
</g>
<g opacity="0.977645" filter="url(#filter1_f_1_11151)">
<path d="M13.7336 8.89486C13.7336 10.2091 13.2112 11.4696 12.2814 12.3989C11.3517 13.3283 10.0906 13.8504 8.77565 13.8504C7.46072 13.8504 6.19965 13.3283 5.26986 12.3989C4.34006 11.4696 3.81771 10.2091 3.81771 8.89486C3.81771 7.58057 4.34006 6.32011 5.26986 5.39077C6.19965 4.46143 7.46072 3.93933 8.77565 3.93933C10.0906 3.93933 11.3517 4.46143 12.2814 5.39077C13.2112 6.32011 13.7336 7.58057 13.7336 8.89486Z" fill="url(#paint2_linear_1_11151)"/>
</g>
<g filter="url(#filter2_f_1_11151)">
<path d="M4.0559 8.89488C4.0559 8.27537 4.17798 7.66194 4.41517 7.08959C4.65236 6.51724 5.00001 5.99719 5.43828 5.55914C5.87655 5.12108 6.39685 4.7736 6.96948 4.53652C7.54211 4.29945 8.15584 4.17743 8.77565 4.17743C9.39546 4.17743 10.0092 4.29945 10.5818 4.53652C11.1544 4.7736 11.6748 5.12108 12.113 5.55914C12.5513 5.99719 12.8989 6.51724 13.1361 7.08959C13.3733 7.66193 13.4954 8.27537 13.4954 8.89488C13.4954 9.51438 13.3733 10.1278 13.1361 10.7002C12.8989 11.2725 12.5513 11.7926 12.113 12.2306C11.6748 12.6687 11.1544 13.0162 10.5818 13.2532C10.0092 13.4903 9.39546 13.6123 8.77565 13.6123C8.15584 13.6123 7.54211 13.4903 6.96948 13.2532C6.39685 13.0162 5.87655 12.6687 5.43828 12.2306C5.00001 11.7926 4.65236 11.2725 4.41517 10.7002C4.17798 10.1278 4.0559 9.51438 4.0559 8.89488Z" fill="url(#paint3_linear_1_11151)"/>
</g>
<g opacity="0.327869" filter="url(#filter3_f_1_11151)">
<path d="M4.34418 8.89488C4.34418 9.47655 4.4588 10.0525 4.6815 10.5899C4.9042 11.1273 5.23062 11.6156 5.64212 12.0269C6.05362 12.4382 6.54214 12.7644 7.07979 12.987C7.61745 13.2096 8.1937 13.3242 8.77564 13.3242C9.35759 13.3242 9.93384 13.2096 10.4715 12.987C11.0091 12.7644 11.4977 12.4382 11.9092 12.0269C12.3207 11.6156 12.6471 11.1273 12.8698 10.5899C13.0925 10.0525 13.2071 9.47655 13.2071 8.89488C13.2071 8.31322 13.0925 7.73725 12.8698 7.19986C12.6471 6.66247 12.3207 6.17419 11.9092 5.76289C11.4977 5.35159 11.0091 5.02533 10.4715 4.80274C9.93384 4.58014 9.35759 4.46558 8.77564 4.46558C8.1937 4.46558 7.61745 4.58015 7.07979 4.80274C6.54214 5.02534 6.05362 5.35159 5.64212 5.76289C5.23062 6.17419 4.9042 6.66247 4.6815 7.19986C4.4588 7.73725 4.34418 8.31322 4.34418 8.89488Z" fill="url(#paint4_linear_1_11151)"/>
</g>
<g opacity="0.877794" filter="url(#filter4_f_1_11151)">
<path d="M4.78008 8.89487C4.78008 7.83569 5.20104 6.8199 5.95035 6.07095C6.69967 5.322 7.71596 4.90125 8.77565 4.90125C9.30035 4.90124 9.81992 5.00455 10.3047 5.20524C10.7895 5.40594 11.2299 5.70011 11.6009 6.07095C11.972 6.44179 12.2663 6.88204 12.4671 7.36657C12.6679 7.8511 12.7712 8.37042 12.7712 8.89487C12.7712 9.41932 12.6679 9.93863 12.4671 10.4232C12.2663 10.9077 11.972 11.3479 11.6009 11.7188C11.2299 12.0896 10.7895 12.3838 10.3047 12.5845C9.81992 12.7852 9.30035 12.8885 8.77565 12.8885C7.71596 12.8885 6.69967 12.4677 5.95035 11.7188C5.20104 10.9698 4.78008 9.95404 4.78008 8.89487Z" fill="url(#paint5_radial_1_11151)"/>
</g>
<g opacity="0.706408" filter="url(#filter5_f_1_11151)">
<path d="M5.20759 8.89486C5.20759 9.84071 5.58351 10.7478 6.25265 11.4166C6.92179 12.0854 7.82934 12.4612 8.77565 12.4612C9.24422 12.4612 9.70819 12.3689 10.1411 12.1897C10.574 12.0105 10.9673 11.7478 11.2987 11.4166C11.63 11.0855 11.8928 10.6923 12.0721 10.2596C12.2514 9.82695 12.3437 9.3632 12.3437 8.89486C12.3437 8.42653 12.2514 7.96278 12.0721 7.53009C11.8928 7.0974 11.63 6.70425 11.2987 6.37309C10.9673 6.04192 10.574 5.77923 10.1411 5.60001C9.70819 5.42078 9.24422 5.32854 8.77565 5.32854C7.82934 5.32854 6.92179 5.70427 6.25265 6.37309C5.58351 7.0419 5.20759 7.94901 5.20759 8.89486Z" fill="url(#paint6_radial_1_11151)"/>
</g>
<g filter="url(#filter6_f_1_11151)">
<path d="M2.81543 8.89487C2.81543 10.4748 3.44338 11.9901 4.56114 13.1073C5.67889 14.2245 7.1949 14.8522 8.77565 14.8522C10.3564 14.8522 11.8724 14.2245 12.9902 13.1073C14.1079 11.9901 14.7359 10.4748 14.7359 8.89487C14.7359 8.11254 14.5817 7.33788 14.2822 6.6151C13.9826 5.89233 13.5436 5.2356 12.9902 4.68241C12.4367 4.12923 11.7797 3.69042 11.0565 3.39103C10.3334 3.09165 9.55835 2.93756 8.77565 2.93756C7.1949 2.93756 5.67889 3.5652 4.56114 4.68241C3.44338 5.79962 2.81543 7.31489 2.81543 8.89487Z" fill="url(#paint7_radial_1_11151)"/>
</g>
<g filter="url(#filter7_f_1_11151)">
<path d="M5.80946 8.89485C5.80946 9.68115 6.12197 10.4352 6.67824 10.9912C7.23451 11.5472 7.98897 11.8596 8.77565 11.8596C9.56233 11.8596 10.3168 11.5472 10.8731 10.9912C11.4293 10.4352 11.7418 9.68115 11.7418 8.89485C11.7418 8.50552 11.6651 8.11999 11.516 7.7603C11.367 7.4006 11.1485 7.07377 10.8731 6.79847C10.5976 6.52316 10.2706 6.30478 9.91076 6.15579C9.55089 6.0068 9.16517 5.93011 8.77565 5.93011C7.98897 5.93011 7.23451 6.24247 6.67824 6.79847C6.12197 7.35446 5.80946 8.10855 5.80946 8.89485Z" fill="url(#paint8_radial_1_11151)"/>
</g>
<path d="M5.72601 7.88531C5.72601 8.90412 6.13093 9.8812 6.85169 10.6016C7.57245 11.322 8.55001 11.7267 9.56931 11.7267C10.5886 11.7267 11.5662 11.322 12.2869 10.6016C13.0077 9.8812 13.4126 8.90412 13.4126 7.88531C13.4126 7.38085 13.3132 6.88132 13.1201 6.41526C12.9269 5.9492 12.6438 5.52572 12.2869 5.16901C11.9301 4.8123 11.5064 4.52934 11.0401 4.3363C10.5738 4.14325 10.074 4.04388 9.56931 4.04388C8.55001 4.04388 7.57245 4.4486 6.85169 5.16901C6.13093 5.88942 5.72601 6.8665 5.72601 7.88531Z" fill="url(#paint9_radial_1_11151)"/>
<defs>
<filter id="filter0_f_1_11151" x="0.804882" y="0.926151" width="15.9415" height="15.9375" filterUnits="userSpaceOnUse" color-interpolation-filters="sRGB">
<feFlood flood-opacity="0" result="BackgroundImageFix"/>
<feBlend mode="normal" in="SourceGraphic" in2="BackgroundImageFix" result="shape"/>
<feGaussianBlur stdDeviation="1.90463" result="effect1_foregroundBlur_1_11151"/>
</filter>
<filter id="filter1_f_1_11151" x="3.47157" y="3.59319" width="10.6082" height="10.6033" filterUnits="userSpaceOnUse" color-interpolation-filters="sRGB">
<feFlood flood-opacity="0" result="BackgroundImageFix"/>
<feBlend mode="normal" in="SourceGraphic" in2="BackgroundImageFix" result="shape"/>
<feGaussianBlur stdDeviation="0.173069" result="effect1_foregroundBlur_1_11151"/>
</filter>
<filter id="filter2_f_1_11151" x="3.97791" y="4.09944" width="9.59549" height="9.59086" filterUnits="userSpaceOnUse" color-interpolation-filters="sRGB">
<feFlood flood-opacity="0" result="BackgroundImageFix"/>
<feBlend mode="normal" in="SourceGraphic" in2="BackgroundImageFix" result="shape"/>
<feGaussianBlur stdDeviation="0.0389967" result="effect1_foregroundBlur_1_11151"/>
</filter>
<filter id="filter3_f_1_11151" x="4.09587" y="4.21727" width="9.35955" height="9.35525" filterUnits="userSpaceOnUse" color-interpolation-filters="sRGB">
<feFlood flood-opacity="0" result="BackgroundImageFix"/>
<feBlend mode="normal" in="SourceGraphic" in2="BackgroundImageFix" result="shape"/>
<feGaussianBlur stdDeviation="0.124153" result="effect1_foregroundBlur_1_11151"/>
</filter>
<filter id="filter4_f_1_11151" x="4.72701" y="4.84818" width="8.09728" height="8.09337" filterUnits="userSpaceOnUse" color-interpolation-filters="sRGB">
<feFlood flood-opacity="0" result="BackgroundImageFix"/>
<feBlend mode="normal" in="SourceGraphic" in2="BackgroundImageFix" result="shape"/>
<feGaussianBlur stdDeviation="0.0265317" result="effect1_foregroundBlur_1_11151"/>
</filter>
<filter id="filter5_f_1_11151" x="4.92306" y="5.04403" width="7.70518" height="7.70168" filterUnits="userSpaceOnUse" color-interpolation-filters="sRGB">
<feFlood flood-opacity="0" result="BackgroundImageFix"/>
<feBlend mode="normal" in="SourceGraphic" in2="BackgroundImageFix" result="shape"/>
<feGaussianBlur stdDeviation="0.142263" result="effect1_foregroundBlur_1_11151"/>
</filter>
<filter id="filter6_f_1_11151" x="1.26529" y="1.38742" width="15.0207" height="15.0149" filterUnits="userSpaceOnUse" color-interpolation-filters="sRGB">
<feFlood flood-opacity="0" result="BackgroundImageFix"/>
<feBlend mode="normal" in="SourceGraphic" in2="BackgroundImageFix" result="shape"/>
<feGaussianBlur stdDeviation="0.775071" result="effect1_foregroundBlur_1_11151"/>
</filter>
<filter id="filter7_f_1_11151" x="5.03801" y="5.15866" width="7.47527" height="7.47241" filterUnits="userSpaceOnUse" color-interpolation-filters="sRGB">
<feFlood flood-opacity="0" result="BackgroundImageFix"/>
<feBlend mode="normal" in="SourceGraphic" in2="BackgroundImageFix" result="shape"/>
<feGaussianBlur stdDeviation="0.385725" result="effect1_foregroundBlur_1_11151"/>
</filter>
<linearGradient id="paint0_linear_1_11151" x1="8.77565" y1="13.8504" x2="8.77565" y2="3.93933" gradientUnits="userSpaceOnUse">
<stop/>
<stop offset="0.507607" stop-color="#323232"/>
</linearGradient>
<radialGradient id="paint1_radial_1_11151" cx="0" cy="0" r="1" gradientUnits="userSpaceOnUse" gradientTransform="translate(8.77565 8.89489) scale(4.43475 4.43272)">
<stop stop-color="#FF0000"/>
<stop offset="1" stop-color="#AC4C4C" stop-opacity="0.408056"/>
</radialGradient>
<linearGradient id="paint2_linear_1_11151" x1="8.77565" y1="13.8504" x2="8.77565" y2="3.93933" gradientUnits="userSpaceOnUse">
<stop/>
<stop offset="0.507607" stop-color="#323232"/>
</linearGradient>
<linearGradient id="paint3_linear_1_11151" x1="8.77565" y1="4.17743" x2="8.77565" y2="13.6123" gradientUnits="userSpaceOnUse">
<stop offset="0.279391"/>
<stop offset="1" stop-color="#323232"/>
</linearGradient>
<linearGradient id="paint4_linear_1_11151" x1="8.77564" y1="13.3242" x2="8.77564" y2="4.46558" gradientUnits="userSpaceOnUse">
<stop offset="0.279391"/>
<stop offset="1" stop-color="#323232"/>
</linearGradient>
<radialGradient id="paint5_radial_1_11151" cx="0" cy="0" r="1" gradientUnits="userSpaceOnUse" gradientTransform="translate(8.71731 4.8517) scale(9.87929 9.87447)">
<stop stop-color="#111111"/>
<stop offset="1" stop-color="#484848"/>
</radialGradient>
<radialGradient id="paint6_radial_1_11151" cx="0" cy="0" r="1" gradientUnits="userSpaceOnUse" gradientTransform="translate(8.72356 12.5054) scale(8.82224 8.81794)">
<stop stop-color="#111111"/>
<stop offset="1" stop-color="#484848"/>
</radialGradient>
<radialGradient id="paint7_radial_1_11151" cx="0" cy="0" r="1" gradientUnits="userSpaceOnUse" gradientTransform="translate(8.77565 8.89487) scale(6.35157 6.34866)">
<stop stop-color="#FF0000"/>
<stop offset="1" stop-color="#0D0D0D" stop-opacity="0"/>
</radialGradient>
<radialGradient id="paint8_radial_1_11151" cx="0" cy="0" r="1" gradientUnits="userSpaceOnUse" gradientTransform="translate(8.77565 8.89485) scale(3.16095 3.1595)">
<stop stop-color="white" stop-opacity="0.169877"/>
<stop offset="1" stop-color="white" stop-opacity="0"/>
</radialGradient>
<radialGradient id="paint9_radial_1_11151" cx="0" cy="0" r="1" gradientUnits="userSpaceOnUse" gradientTransform="translate(9.56932 7.88531) scale(1.95469 1.95379)">
<stop stop-color="white" stop-opacity="0.169877"/>
<stop offset="1" stop-color="white" stop-opacity="0"/>
</radialGradient>
</defs>
</svg>
