<svg width="17" height="17" viewBox="0 0 17 17" fill="none" xmlns="http://www.w3.org/2000/svg">
<g opacity="0.22">
<path opacity="0.822653" d="M13.5522 8.82552C13.5522 10.1398 13.0298 11.4003 12.1 12.3296C11.1703 13.2589 9.90918 13.781 8.59426 13.781C7.27933 13.781 6.01826 13.2589 5.08846 12.3296C4.15867 11.4003 3.63631 10.1398 3.63631 8.82552C3.63631 7.51123 4.15867 6.25078 5.08846 5.32144C6.01826 4.3921 7.27933 3.87 8.59426 3.87C9.90918 3.87 11.1703 4.3921 12.1001 5.32144C13.0298 6.25078 13.5522 7.51123 13.5522 8.82552Z" fill="url(#paint0_linear_1_11151)"/>
<g opacity="0.244411" filter="url(#filter0_f_1_11151)">
<path d="M4.43275 8.82549C4.43275 9.92865 4.87119 10.9866 5.65162 11.7667C6.43206 12.5467 7.49055 12.985 8.59425 12.985C9.69795 12.985 10.7564 12.5467 11.5369 11.7667C12.3173 10.9866 12.7558 9.92865 12.7558 8.82549C12.7558 8.27926 12.6481 7.73838 12.439 7.23372C12.2298 6.72907 11.9233 6.27054 11.5369 5.88429C11.1504 5.49805 10.6917 5.19167 10.1868 4.98264C9.68189 4.7736 9.14075 4.66602 8.59425 4.66602C7.49055 4.66602 6.43206 5.10424 5.65162 5.88429C4.87119 6.66435 4.43275 7.72233 4.43275 8.82549Z" fill="url(#paint1_radial_1_11151)"/>
</g>
<g opacity="0.977645" filter="url(#filter1_f_1_11151)">
<path d="M13.5522 8.82552C13.5522 10.1398 13.0298 11.4003 12.1 12.3296C11.1703 13.2589 9.90918 13.781 8.59426 13.781C7.27933 13.781 6.01826 13.2589 5.08846 12.3296C4.15867 11.4003 3.63631 10.1398 3.63631 8.82552C3.63631 7.51123 4.15867 6.25078 5.08846 5.32144C6.01826 4.3921 7.27933 3.87 8.59426 3.87C9.90918 3.87 11.1703 4.3921 12.1001 5.32144C13.0298 6.25078 13.5522 7.51123 13.5522 8.82552Z" fill="url(#paint2_linear_1_11151)"/>
</g>
<g filter="url(#filter2_f_1_11151)">
<path d="M3.8745 8.82548C3.8745 8.20598 3.99658 7.59254 4.23377 7.02019C4.47096 6.44785 4.81861 5.9278 5.25688 5.48974C5.69515 5.05169 6.21545 4.7042 6.78808 4.46713C7.36071 4.23005 7.97444 4.10803 8.59425 4.10803C9.21406 4.10803 9.8278 4.23005 10.4004 4.46713C10.973 4.7042 11.4934 5.05169 11.9316 5.48974C12.3699 5.9278 12.7175 6.44784 12.9547 7.02019C13.1919 7.59254 13.314 8.20598 13.314 8.82548C13.314 9.44498 13.1919 10.0584 12.9547 10.6308C12.7175 11.2031 12.3699 11.7232 11.9316 12.1612C11.4934 12.5993 10.973 12.9468 10.4004 13.1838C9.8278 13.4209 9.21406 13.5429 8.59425 13.5429C7.97444 13.5429 7.36071 13.4209 6.78808 13.1838C6.21545 12.9468 5.69515 12.5993 5.25688 12.1612C4.81861 11.7232 4.47096 11.2031 4.23377 10.6308C3.99658 10.0584 3.8745 9.44498 3.8745 8.82548Z" fill="url(#paint3_linear_1_11151)"/>
</g>
<g opacity="0.327869" filter="url(#filter3_f_1_11151)">
<path d="M4.16278 8.82542C4.16278 9.40709 4.27741 9.98306 4.50011 10.5205C4.72281 11.0578 5.04923 11.5461 5.46073 11.9574C5.87223 12.3687 6.36075 12.695 6.8984 12.9176C7.43605 13.1402 8.0123 13.2547 8.59425 13.2547C9.1762 13.2547 9.75245 13.1402 10.2901 12.9176C10.8278 12.695 11.3163 12.3687 11.7278 11.9574C12.1393 11.5461 12.4657 11.0578 12.6884 10.5205C12.9111 9.98306 13.0257 9.40709 13.0257 8.82542C13.0257 8.24376 12.9111 7.66779 12.6884 7.1304C12.4657 6.59301 12.1393 6.10473 11.7278 5.69343C11.3163 5.28213 10.8278 4.95587 10.2901 4.73328C9.75245 4.51068 9.1762 4.39612 8.59425 4.39612C8.0123 4.39612 7.43605 4.51069 6.8984 4.73328C6.36075 4.95588 5.87223 5.28213 5.46073 5.69343C5.04923 6.10473 4.72281 6.59301 4.50011 7.1304C4.27741 7.66779 4.16278 8.24376 4.16278 8.82542Z" fill="url(#paint4_linear_1_11151)"/>
</g>
<g opacity="0.877794" filter="url(#filter4_f_1_11151)">
<path d="M4.59868 8.82541C4.59868 7.76623 5.01964 6.75044 5.76895 6.00149C6.51827 5.25254 7.53456 4.83179 8.59425 4.83179C9.11896 4.83179 9.63853 4.93509 10.1233 5.13579C10.6081 5.33648 11.0485 5.63065 11.4195 6.00149C11.7906 6.37233 12.0849 6.81259 12.2857 7.29711C12.4865 7.78164 12.5898 8.30096 12.5898 8.82541C12.5898 9.34986 12.4865 9.86917 12.2857 10.3537C12.0849 10.8382 11.7906 11.2785 11.4195 11.6493C11.0485 12.0202 10.6081 12.3143 10.1233 12.515C9.63853 12.7157 9.11896 12.819 8.59425 12.819C7.53456 12.819 6.51827 12.3983 5.76895 11.6493C5.01964 10.9004 4.59868 9.88458 4.59868 8.82541Z" fill="url(#paint5_radial_1_11151)"/>
</g>
<g opacity="0.706408" filter="url(#filter5_f_1_11151)">
<path d="M5.02619 8.82553C5.02619 9.77137 5.40211 10.6785 6.07125 11.3473C6.74039 12.0161 7.64794 12.3918 8.59425 12.3918C9.06282 12.3918 9.5268 12.2996 9.95969 12.1204C10.3926 11.9411 10.7859 11.6785 11.1173 11.3473C11.4486 11.0161 11.7114 10.623 11.8907 10.1903C12.07 9.75761 12.1623 9.29386 12.1623 8.82553C12.1623 8.35719 12.07 7.89344 11.8907 7.46075C11.7114 7.02807 11.4486 6.63492 11.1173 6.30375C10.7859 5.97259 10.3926 5.7099 9.95969 5.53067C9.5268 5.35145 9.06282 5.2592 8.59425 5.2592C7.64794 5.2592 6.74039 5.63494 6.07125 6.30375C5.40211 6.97257 5.02619 7.87968 5.02619 8.82553Z" fill="url(#paint6_radial_1_11151)"/>
</g>
<g filter="url(#filter6_f_1_11151)">
<path d="M2.63403 8.82547C2.63403 10.4054 3.26198 11.9207 4.37974 13.0379C5.4975 14.1551 7.0135 14.7828 8.59425 14.7828C10.175 14.7828 11.691 14.1551 12.8088 13.0379C13.9265 11.9207 14.5545 10.4054 14.5545 8.82547C14.5545 8.04314 14.4003 7.26848 14.1008 6.54571C13.8012 5.82293 13.3622 5.1662 12.8088 4.61302C12.2553 4.05983 11.5983 3.62102 10.8751 3.32164C10.152 3.02225 9.37696 2.86816 8.59425 2.86816C7.0135 2.86816 5.4975 3.4958 4.37974 4.61302C3.26198 5.73023 2.63403 7.24549 2.63403 8.82547Z" fill="url(#paint7_radial_1_11151)"/>
</g>
<g filter="url(#filter7_f_1_11151)">
<path d="M5.62807 8.82546C5.62807 9.61175 5.94058 10.3658 6.49684 10.9218C7.05311 11.4778 7.80757 11.7902 8.59425 11.7902C9.38093 11.7902 10.1354 11.4778 10.6917 10.9218C11.2479 10.3658 11.5604 9.61175 11.5604 8.82546C11.5604 8.43612 11.4837 8.0506 11.3347 7.6909C11.1856 7.3312 10.9671 7.00437 10.6917 6.72907C10.4162 6.45377 10.0892 6.23539 9.72936 6.08639C9.36949 5.9374 8.98378 5.86072 8.59425 5.86072C7.80757 5.86072 7.05311 6.17307 6.49684 6.72907C5.94057 7.28506 5.62807 8.03916 5.62807 8.82546Z" fill="url(#paint8_radial_1_11151)"/>
</g>
<path d="M5.54461 7.81591C5.54461 8.83472 5.94953 9.8118 6.67029 10.5322C7.39105 11.2526 8.36861 11.6573 9.38791 11.6573C10.4072 11.6573 11.3848 11.2526 12.1055 10.5322C12.8263 9.8118 13.2312 8.83472 13.2312 7.81591C13.2312 7.31145 13.1318 6.81192 12.9387 6.34586C12.7455 5.8798 12.4624 5.45632 12.1055 5.09961C11.7487 4.74291 11.325 4.45995 10.8587 4.2669C10.3924 4.07385 9.89262 3.97449 9.38791 3.97449C8.36861 3.97449 7.39105 4.37921 6.67029 5.09961C5.94953 5.82002 5.54461 6.7971 5.54461 7.81591Z" fill="url(#paint9_radial_1_11151)"/>
</g>
<defs>
<filter id="filter0_f_1_11151" x="0.623485" y="0.856754" width="15.9415" height="15.9375" filterUnits="userSpaceOnUse" color-interpolation-filters="sRGB">
<feFlood flood-opacity="0" result="BackgroundImageFix"/>
<feBlend mode="normal" in="SourceGraphic" in2="BackgroundImageFix" result="shape"/>
<feGaussianBlur stdDeviation="1.90463" result="effect1_foregroundBlur_1_11151"/>
</filter>
<filter id="filter1_f_1_11151" x="3.29018" y="3.52386" width="10.6082" height="10.6033" filterUnits="userSpaceOnUse" color-interpolation-filters="sRGB">
<feFlood flood-opacity="0" result="BackgroundImageFix"/>
<feBlend mode="normal" in="SourceGraphic" in2="BackgroundImageFix" result="shape"/>
<feGaussianBlur stdDeviation="0.173069" result="effect1_foregroundBlur_1_11151"/>
</filter>
<filter id="filter2_f_1_11151" x="3.79651" y="4.03004" width="9.59549" height="9.59092" filterUnits="userSpaceOnUse" color-interpolation-filters="sRGB">
<feFlood flood-opacity="0" result="BackgroundImageFix"/>
<feBlend mode="normal" in="SourceGraphic" in2="BackgroundImageFix" result="shape"/>
<feGaussianBlur stdDeviation="0.0389967" result="effect1_foregroundBlur_1_11151"/>
</filter>
<filter id="filter3_f_1_11151" x="3.91448" y="4.14781" width="9.35955" height="9.35525" filterUnits="userSpaceOnUse" color-interpolation-filters="sRGB">
<feFlood flood-opacity="0" result="BackgroundImageFix"/>
<feBlend mode="normal" in="SourceGraphic" in2="BackgroundImageFix" result="shape"/>
<feGaussianBlur stdDeviation="0.124153" result="effect1_foregroundBlur_1_11151"/>
</filter>
<filter id="filter4_f_1_11151" x="4.54562" y="4.77872" width="8.09728" height="8.09343" filterUnits="userSpaceOnUse" color-interpolation-filters="sRGB">
<feFlood flood-opacity="0" result="BackgroundImageFix"/>
<feBlend mode="normal" in="SourceGraphic" in2="BackgroundImageFix" result="shape"/>
<feGaussianBlur stdDeviation="0.0265317" result="effect1_foregroundBlur_1_11151"/>
</filter>
<filter id="filter5_f_1_11151" x="4.74167" y="4.97463" width="7.70518" height="7.70174" filterUnits="userSpaceOnUse" color-interpolation-filters="sRGB">
<feFlood flood-opacity="0" result="BackgroundImageFix"/>
<feBlend mode="normal" in="SourceGraphic" in2="BackgroundImageFix" result="shape"/>
<feGaussianBlur stdDeviation="0.142263" result="effect1_foregroundBlur_1_11151"/>
</filter>
<filter id="filter6_f_1_11151" x="1.08389" y="1.31802" width="15.0207" height="15.0148" filterUnits="userSpaceOnUse" color-interpolation-filters="sRGB">
<feFlood flood-opacity="0" result="BackgroundImageFix"/>
<feBlend mode="normal" in="SourceGraphic" in2="BackgroundImageFix" result="shape"/>
<feGaussianBlur stdDeviation="0.775071" result="effect1_foregroundBlur_1_11151"/>
</filter>
<filter id="filter7_f_1_11151" x="4.85662" y="5.08927" width="7.47527" height="7.47234" filterUnits="userSpaceOnUse" color-interpolation-filters="sRGB">
<feFlood flood-opacity="0" result="BackgroundImageFix"/>
<feBlend mode="normal" in="SourceGraphic" in2="BackgroundImageFix" result="shape"/>
<feGaussianBlur stdDeviation="0.385725" result="effect1_foregroundBlur_1_11151"/>
</filter>
<linearGradient id="paint0_linear_1_11151" x1="8.59426" y1="13.781" x2="8.59426" y2="3.86999" gradientUnits="userSpaceOnUse">
<stop/>
<stop offset="0.507607" stop-color="#323232"/>
</linearGradient>
<radialGradient id="paint1_radial_1_11151" cx="0" cy="0" r="1" gradientUnits="userSpaceOnUse" gradientTransform="translate(8.59425 8.82549) scale(4.43475 4.43272)">
<stop stop-color="#FF0000"/>
<stop offset="1" stop-color="#AC4C4C" stop-opacity="0.408056"/>
</radialGradient>
<linearGradient id="paint2_linear_1_11151" x1="8.59426" y1="13.781" x2="8.59426" y2="3.86999" gradientUnits="userSpaceOnUse">
<stop/>
<stop offset="0.507607" stop-color="#323232"/>
</linearGradient>
<linearGradient id="paint3_linear_1_11151" x1="8.59425" y1="4.10803" x2="8.59425" y2="13.5429" gradientUnits="userSpaceOnUse">
<stop offset="0.279391"/>
<stop offset="1" stop-color="#323232"/>
</linearGradient>
<linearGradient id="paint4_linear_1_11151" x1="8.59425" y1="13.2547" x2="8.59425" y2="4.39613" gradientUnits="userSpaceOnUse">
<stop offset="0.279391"/>
<stop offset="1" stop-color="#323232"/>
</linearGradient>
<radialGradient id="paint5_radial_1_11151" cx="0" cy="0" r="1" gradientUnits="userSpaceOnUse" gradientTransform="translate(8.53591 4.78224) scale(9.87929 9.87447)">
<stop stop-color="#111111"/>
<stop offset="1" stop-color="#484848"/>
</radialGradient>
<radialGradient id="paint6_radial_1_11151" cx="0" cy="0" r="1" gradientUnits="userSpaceOnUse" gradientTransform="translate(8.54216 12.4361) scale(8.82224 8.81794)">
<stop stop-color="#111111"/>
<stop offset="1" stop-color="#484848"/>
</radialGradient>
<radialGradient id="paint7_radial_1_11151" cx="0" cy="0" r="1" gradientUnits="userSpaceOnUse" gradientTransform="translate(8.59425 8.82547) scale(6.35157 6.34866)">
<stop stop-color="#FF0000"/>
<stop offset="1" stop-color="#0D0D0D" stop-opacity="0"/>
</radialGradient>
<radialGradient id="paint8_radial_1_11151" cx="0" cy="0" r="1" gradientUnits="userSpaceOnUse" gradientTransform="translate(8.59425 8.82546) scale(3.16095 3.1595)">
<stop stop-color="white" stop-opacity="0.169877"/>
<stop offset="1" stop-color="white" stop-opacity="0"/>
</radialGradient>
<radialGradient id="paint9_radial_1_11151" cx="0" cy="0" r="1" gradientUnits="userSpaceOnUse" gradientTransform="translate(9.38792 7.81591) scale(1.95469 1.95379)">
<stop stop-color="white" stop-opacity="0.169877"/>
<stop offset="1" stop-color="white" stop-opacity="0"/>
</radialGradient>
</defs>
</svg>
